<!-- Generated by IcoMoon.io -->
<svg version="1.1" xmlns="http://www.w3.org/2000/svg" width="32" height="32" viewBox="0 0 32 32">
<title>apple-calendar</title>
<path fill="#f9f9f9" d="M24.971 31.892h-17.967c-3.814 0-6.896-3.094-6.896-6.896v-17.955c0-3.814 3.094-6.896 6.896-6.896h17.956c3.814 0 6.896 3.095 6.896 6.896v17.956c0.012 3.814-3.082 6.896-6.885 6.896z"></path>
<path fill="#d8d8d8" d="M24.767 32h-17.547c-3.982 0-7.209-3.239-7.209-7.208v-17.547c0-3.982 3.239-7.208 7.209-7.208h17.547c3.983 0 7.209 3.239 7.209 7.208v17.547c0.012 3.97-3.227 7.208-7.209 7.208zM7.221 0.239c-3.863 0-7.005 3.143-7.005 7.005v17.547c0 3.862 3.142 7.005 7.005 7.005h17.547c3.863 0 7.005-3.142 7.005-7.005v-17.547c0-3.862-3.142-7.005-7.005-7.005l-17.547-0.001z"></path>
<path fill="#e9574e" d="M31.88 9.619v-2.411c0-3.922-3.177-7.112-7.113-7.112h-17.547c-3.923 0-7.114 3.178-7.114 7.112v2.411h31.773z"></path>
<path fill="#e9574e" d="M31.988 9.727h-31.977v-2.519c0-3.982 3.239-7.208 7.209-7.208h17.547c3.983 0 7.209 3.239 7.209 7.208v2.519l0.012-0.001zM0.228 9.511h31.544v-2.303c0-3.862-3.142-7.005-7.005-7.005h-17.547c-3.863 0-7.005 3.143-7.005 7.005v2.303h0.013z"></path>
<path fill="#000" d="M10.839 14.4h-0.040l-3.955 2.657v-1.421l3.975-2.729h1.37v14.746h-1.349v-13.254z"></path>
<path fill="#000" d="M23.767 14.196v-0.041h-8.216v-1.247h9.606v1.308l-6.745 13.438h-1.482l6.837-13.459z"></path>
<path fill="#fff" d="M9.828 5.835l-0.004-0.031h1.002l0.004 0.021c0.017 0.383 0.242 0.649 0.649 0.649 0.434 0 0.666-0.263 0.666-0.762v-3.363h1.032v3.374c0 1.039-0.619 1.644-1.688 1.644-1.018 0-1.637-0.605-1.661-1.532z"></path>
<path fill="#fff" d="M14.035 5.537v-3.189h1.032v3.096c0 0.639 0.373 1.046 1.035 1.046s1.032-0.407 1.032-1.046v-3.096h1.032v3.189c0 1.094-0.793 1.829-2.064 1.829-1.264 0-2.067-0.732-2.067-1.829z"></path>
<path fill="#fff" d="M18.988 2.349h1.032v4.081h2.156v0.851h-3.189v-4.932z"></path>
</svg>
