<!-- Generated by IcoMoon.io -->
<svg version="1.1" xmlns="http://www.w3.org/2000/svg" width="32" height="32" viewBox="0 0 32 32">
<title>apple-calendar-mobile</title>
<path fill="#fff" d="M31.752 10.103c0-0.376 0-0.752-0.001-1.129-0.002-0.316-0.006-0.634-0.015-0.951-0.018-0.69-0.059-1.387-0.181-2.069-0.124-0.693-0.329-1.338-0.649-1.968-0.316-0.619-0.727-1.184-1.216-1.676-0.492-0.49-1.056-0.901-1.677-1.216-0.628-0.321-1.273-0.524-1.966-0.648-0.681-0.122-1.38-0.163-2.069-0.182-0.317-0.009-0.635-0.012-0.951-0.015-0.377-0.002-0.753-0.002-1.128-0.002h-11.795c-0.376 0-0.752 0-1.129 0.002-0.316 0.002-0.634 0.006-0.95 0.015-0.69 0.019-1.388 0.060-2.069 0.182-0.694 0.124-1.338 0.329-1.966 0.648-0.619 0.315-1.186 0.726-1.676 1.216-0.492 0.491-0.901 1.056-1.216 1.676-0.321 0.63-0.523 1.274-0.649 1.968-0.122 0.683-0.163 1.38-0.18 2.069-0.009 0.316-0.014 0.634-0.015 0.951-0.003 0.376-0.003 0.752-0.003 1.129v11.795c0 0.376 0 0.752 0.003 1.128 0.002 0.317 0.006 0.635 0.015 0.951 0.019 0.689 0.059 1.387 0.182 2.069 0.124 0.694 0.329 1.34 0.649 1.968 0.315 0.618 0.727 1.184 1.216 1.674 0.49 0.491 1.056 0.903 1.676 1.218 0.628 0.322 1.273 0.524 1.966 0.648 0.683 0.122 1.38 0.163 2.070 0.181 0.316 0.009 0.635 0.012 0.951 0.015 0.377 0.002 0.753 0.002 1.13 0.002h11.794c0.375 0 0.753 0 1.128-0.002 0.317-0.002 0.635-0.006 0.951-0.015 0.691-0.018 1.387-0.059 2.070-0.181 0.694-0.124 1.337-0.328 1.966-0.648 0.618-0.315 1.184-0.727 1.676-1.218 0.491-0.489 0.902-1.056 1.216-1.675 0.322-0.631 0.524-1.275 0.649-1.968 0.123-0.682 0.163-1.378 0.183-2.069 0.009-0.317 0.012-0.635 0.015-0.951 0.002-0.377 0.002-0.753 0.002-1.128v-11.794h-0.002z"></path>
<path fill="#aaa" d="M21.898 31.999l-12.925-0.002c-0.321-0.003-0.639-0.006-0.957-0.015-0.623-0.017-1.361-0.052-2.106-0.186-0.747-0.134-1.413-0.354-2.035-0.671-0.645-0.327-1.229-0.753-1.739-1.263s-0.934-1.094-1.262-1.737c-0.319-0.625-0.539-1.291-0.672-2.036-0.134-0.742-0.169-1.482-0.186-2.105-0.009-0.319-0.013-0.639-0.015-0.957-0.003-0.376-0.003-0.753-0.003-1.13v-11.794c0-0.377 0-0.754 0.003-1.13 0.001-0.318 0.005-0.637 0.015-0.957 0.015-0.584 0.049-1.351 0.184-2.106 0.135-0.748 0.355-1.413 0.672-2.036 0.327-0.643 0.751-1.228 1.262-1.738 0.509-0.509 1.093-0.933 1.739-1.262 0.627-0.319 1.292-0.538 2.035-0.67s1.481-0.169 2.106-0.186c0.319-0.009 0.638-0.013 0.957-0.015h14.055c0.32 0.003 0.639 0.005 0.957 0.015 0.625 0.018 1.363 0.053 2.105 0.186 0.747 0.134 1.413 0.353 2.035 0.671 0.64 0.324 1.224 0.749 1.738 1.261 0.511 0.513 0.936 1.098 1.262 1.739 0.32 0.628 0.54 1.294 0.672 2.036 0.134 0.745 0.169 1.482 0.186 2.106 0.009 0.319 0.013 0.638 0.015 0.957l0.002 12.925-0.002 1.13c-0.003 0.321-0.006 0.639-0.014 0.957-0.017 0.625-0.053 1.364-0.186 2.106-0.135 0.747-0.355 1.413-0.672 2.035-0.329 0.646-0.753 1.23-1.261 1.738-0.511 0.51-1.095 0.935-1.739 1.262-0.628 0.32-1.293 0.538-2.034 0.672-0.744 0.133-1.483 0.169-2.107 0.186-0.317 0.009-0.639 0.013-0.957 0.015l-1.13 0.002zM10.102 0.493l-1.128 0.002c-0.314 0.002-0.63 0.006-0.945 0.015-0.606 0.016-1.322 0.051-2.033 0.178-0.694 0.125-1.316 0.329-1.898 0.625-0.599 0.304-1.141 0.699-1.614 1.171-0.474 0.474-0.868 1.017-1.171 1.614-0.295 0.579-0.5 1.2-0.626 1.9-0.13 0.721-0.162 1.465-0.177 2.032-0.009 0.316-0.014 0.631-0.015 0.946-0.003 0.376-0.003 0.752-0.003 1.127v11.794c0 0.375 0 0.75 0.003 1.127 0.002 0.316 0.006 0.632 0.015 0.947 0.016 0.606 0.051 1.322 0.178 2.032 0.124 0.697 0.33 1.318 0.626 1.899 0.303 0.596 0.698 1.139 1.171 1.613s1.016 0.868 1.614 1.172c0.579 0.296 1.2 0.5 1.898 0.625 0.713 0.128 1.428 0.162 2.033 0.177 0.315 0.009 0.63 0.012 0.944 0.015h14.051c0.314-0.002 0.631-0.006 0.945-0.015 0.605-0.016 1.322-0.050 2.034-0.177 0.693-0.124 1.314-0.328 1.898-0.625 0.596-0.303 1.139-0.698 1.613-1.172 0.472-0.471 0.866-1.013 1.171-1.612 0.296-0.58 0.5-1.201 0.626-1.901 0.128-0.71 0.163-1.426 0.178-2.032 0.009-0.315 0.012-0.631 0.015-0.946l0.002-12.676-0.003-1.374c-0.002-0.314-0.006-0.63-0.015-0.945-0.016-0.606-0.050-1.321-0.177-2.034-0.124-0.694-0.329-1.315-0.626-1.899-0.303-0.595-0.697-1.138-1.172-1.614s-1.019-0.869-1.613-1.171c-0.579-0.296-1.199-0.5-1.898-0.625-0.71-0.127-1.427-0.162-2.032-0.178-0.314-0.009-0.631-0.012-0.945-0.015l-12.922-0.001z"></path>
<path fill="#000" d="M12.005 26.022v-14.658h-0.616l-3.735 2.473v0.626l3.692-2.417h0.043v13.978h0.614v-0.002z"></path>
<path fill="#000" d="M15.653 11.364v0.562h8.052v0.043l-6.466 14.053h0.692l6.412-14.065v-0.594h-8.69z"></path>
<path fill="#f00" d="M5.971 8.489v-3.17h0.011l1.253 2.846h0.415l1.249-2.845h0.015v3.169h0.415v-4.198h-0.441l-1.438 3.364h-0.012l-1.442-3.362h-0.441v4.197h0.414z"></path>
<path fill="#f00" d="M11.589 5.215c-0.876 0-1.364 0.638-1.364 1.5v0.317c0 0.868 0.483 1.508 1.364 1.508s1.36-0.641 1.36-1.508v-0.316c0.002-0.863-0.486-1.5-1.36-1.5v0zM11.589 5.612c0.572 0 0.907 0.428 0.907 1.126v0.271c0 0.702-0.335 1.129-0.907 1.129-0.576 0-0.91-0.43-0.91-1.129v-0.271c0-0.697 0.335-1.126 0.91-1.126v0z"></path>
<path fill="#f00" d="M13.797 8.489h0.452v-1.973c0-0.461 0.252-0.887 0.843-0.887 0.505 0 0.829 0.305 0.829 0.854v2.003h0.452v-2.072c0-0.782-0.495-1.204-1.159-1.204-0.53 0-0.832 0.277-0.951 0.493h-0.014v-0.441h-0.452v3.226z"></path>
<path fill="#f00" d="M18.453 5.212c-0.801 0-1.289 0.625-1.289 1.498v0.33c0 0.89 0.453 1.498 1.289 1.498 0.462 0 0.794-0.233 0.966-0.551h0.012v0.502h0.427v-4.421h-0.451v1.662h-0.012c-0.157-0.279-0.489-0.516-0.942-0.516v0zM18.495 5.616c0.572 0 0.923 0.449 0.923 1.114v0.299c0 0.693-0.341 1.107-0.917 1.107-0.511 0-0.883-0.372-0.883-1.11v-0.292c-0.001-0.752 0.378-1.119 0.877-1.119v0z"></path>
<path fill="#f00" d="M22.657 8.071h0.012v0.418h0.441v-2.24c0-0.662-0.486-1.034-1.157-1.034-0.747 0-1.133 0.391-1.171 0.951h0.428c0.035-0.341 0.28-0.561 0.723-0.561 0.458 0 0.723 0.244 0.723 0.696v0.347h-0.876c-0.736 0.003-1.123 0.361-1.123 0.918 0 0.591 0.427 0.976 1.053 0.976 0.492-0.001 0.793-0.213 0.947-0.471v0zM21.818 8.151c-0.363 0-0.694-0.194-0.694-0.593 0-0.314 0.2-0.538 0.671-0.538h0.861v0.397c-0 0.434-0.36 0.735-0.84 0.735z"></path>
<path fill="#f00" d="M26.442 5.268h-0.484l-0.92 2.695h-0.015l-0.921-2.695h-0.503l1.203 3.273-0.061 0.197c-0.095 0.332-0.259 0.527-0.637 0.527-0.070 0-0.186-0.009-0.237-0.019v0.385c0.080 0.012 0.2 0.025 0.308 0.025 0.627 0 0.843-0.431 1.012-0.896l0.093-0.241 1.163-3.251z"></path>
</svg>
