<!-- Generated by IcoMoon.io -->
<svg version="1.1" xmlns="http://www.w3.org/2000/svg" width="32" height="32" viewBox="0 0 32 32">
<title>google-calendar</title>
<path fill="#fff" d="M24.421 7.579h-16.842v16.842h16.842v-16.842z"></path>
<path fill="#ea4335" d="M24.421 32l7.579-7.579h-7.579v7.579z"></path>
<path fill="#fbbc04" d="M32 7.579h-7.579v16.842h7.579v-16.842z"></path>
<path fill="#34a853" d="M24.421 24.421h-16.842v7.579h16.842v-7.579z"></path>
<path fill="#188038" d="M0.001 24.421v5.052c0 1.396 1.131 2.526 2.526 2.526h5.052v-7.579h-7.579z"></path>
<path fill="#1967d2" d="M32 7.579v-5.052c0-1.396-1.131-2.526-2.526-2.526h-5.052v7.579h7.579z"></path>
<path fill="#4285f4" d="M24.421 0.001h-21.894c-1.396 0-2.526 1.131-2.526 2.526v21.894h7.579v-16.842h16.842v-7.579z"></path>
<path fill="#4285f4" d="M11.034 20.644c-0.629-0.425-1.065-1.046-1.303-1.867l1.461-0.602c0.133 0.505 0.364 0.897 0.695 1.175 0.328 0.278 0.728 0.415 1.196 0.415 0.478 0 0.888-0.145 1.232-0.436s0.516-0.661 0.516-1.109c0-0.459-0.181-0.834-0.543-1.124s-0.817-0.436-1.36-0.436h-0.844v-1.446h0.758c0.467 0 0.861-0.126 1.181-0.379s0.48-0.598 0.48-1.038c0-0.392-0.143-0.703-0.429-0.937s-0.648-0.352-1.088-0.352c-0.429 0-0.771 0.114-1.023 0.343-0.247 0.225-0.436 0.509-0.547 0.83l-0.004 0.014-1.446-0.602c0.192-0.543 0.543-1.023 1.059-1.438s1.175-0.623 1.975-0.623c0.592 0 1.124 0.114 1.596 0.343s0.842 0.547 1.109 0.952c0.267 0.406 0.4 0.861 0.4 1.366 0 0.516-0.124 0.952-0.373 1.309s-0.554 0.632-0.916 0.823v0.086c0.478 0.2 0.875 0.514 1.169 0.908l0.005 0.007c0.305 0.411 0.459 0.901 0.459 1.474s-0.145 1.084-0.436 1.533-0.693 0.802-1.202 1.059c-0.512 0.257-1.086 0.387-1.724 0.387-0.739 0.002-1.421-0.211-2.050-0.636zM20.009 13.394l-1.604 1.16-0.802-1.217 2.878-2.076h1.103v9.791h-1.575v-7.659z"></path>
</svg>
