<!-- Generated by IcoMoon.io -->
<svg version="1.1" xmlns="http://www.w3.org/2000/svg" width="32" height="32" viewBox="0 0 32 32">
<title>outlook</title>
<path fill="#123b6d" d="M31.996 16.641c0.001 0.044-0.005 0.088-0.017 0.13-0.004 0.020-0.009 0.042-0.015 0.061 0.002 0.003 0 0.006-0.002 0.007-0.006 0.020-0.012 0.037-0.020 0.052-0.012 0.026-0.025 0.052-0.040 0.076-0.059 0.112-0.152 0.203-0.265 0.262l-1.269 0.714-1.532 0.856-8.227 4.621c-0.042 0.022-0.088 0.046-0.134 0.073-0.006 0.002-0.008 0.004-0.012 0.007-0.092 0.049-0.191 0.085-0.294 0.107h-0.002c-0.126 0.032-0.252 0.049-0.381 0.048-0.235 0.003-0.469-0.050-0.68-0.155-0.035-0.020-0.071-0.040-0.105-0.057-0.012-0.007-0.026-0.015-0.041-0.022l-11.025-6.192c-0.114-0.059-0.207-0.151-0.267-0.262-0.014-0.026-0.027-0.052-0.038-0.078l-0.052-0.248c-0-0.238 0.126-0.457 0.335-0.574l0.008-0.008c0.005 0 0.010-0.006 0.015-0.006l11.026-6.189c0.050-0.027 0.098-0.056 0.146-0.081 0.427-0.21 0.927-0.21 1.356 0 0.050 0.025 0.098 0.053 0.146 0.081l11.027 6.189c0.008 0 0.012 0.006 0.017 0.006l0.004 0.008c0.208 0.116 0.337 0.337 0.335 0.574z"></path>
<path fill="#28a8ea" d="M23.435 5.621h-7.056v6.509l7.056 6.51h7.054v-6.51z"></path>
<path fill="#0364b8" d="M23.435 18.64v6.51h-7.056l-0.127-0.105-0.017-0.015v-0.003l-0.022-0.020-0.047-0.038-0.084-0.073-0.009-0.005-0.111-0.095-0.002-0.003-0.027-0.023-0.012-0.009-0.012-0.013-0.149-0.125h-0.002l-0.031-0.029-0.021-0.018-0.013-0.009-0.030-0.026-0.076-0.063-0.151-0.122-6.364-5.175v-7.054h7.307l0.189 0.175 0.113 0.102 0.076 0.070 0.189 0.175 0.032 0.030 0.158 0.145 6.3 5.811z"></path>
<path fill="#14447d" d="M9.324 18.64h7.055v6.51h-7.055v-6.51z"></path>
<path fill="#0078d4" d="M23.435 18.64h7.054v6.51h-7.054v-6.51z"></path>
<path fill="#50d9ff" d="M23.435 5.621h7.054v6.51h-7.054v-6.51z"></path>
<path fill="#0078d4" d="M9.072 5.621h7.307v6.51h-7.307v-6.51z"></path>
<path fill="#0078d4" d="M16.379 12.13h7.056v6.51h-7.056v-6.51z"></path>
<path fill="#0358a7" d="M10.427 1.865h18.705c0.75 0 1.356 0.603 1.356 1.347v0 2.409h-21.417v-2.409c0-0.744 0.606-1.347 1.355-1.347v0z"></path>
<path fill="#0a2767" opacity="0.1" d="M30.489 16.844l-10.395 5.606c-0.014 0.010-0.032 0.020-0.050 0.027-0.017 0.009-0.036 0.017-0.056 0.024l-0.378-0.21c-0.022-0.010-0.043-0.020-0.061-0.032l-0.025-0.015-10.451-5.778v8.078h21.417v-7.7z"></path>
<path fill="#0a2767" opacity="0.1" d="M30.489 17.094l-10.395 5.607c-0.014 0.011-0.032 0.018-0.050 0.026-0.017 0.009-0.036 0.017-0.056 0.024l-0.337-0.189-0.041-0.023c-0.022-0.010-0.043-0.020-0.061-0.032l-0.025-0.015-10.451-5.776v8.077h21.417v-7.7z"></path>
<path fill="#0a2767" opacity="0.1" d="M30.489 17.344l-10.395 5.607c-0.014 0.011-0.032 0.018-0.050 0.027-0.017 0.009-0.036 0.017-0.056 0.024l-0.337-0.189-0.041-0.022c-0.022-0.011-0.043-0.020-0.061-0.032l-0.025-0.016-10.451-5.776v8.077h21.417v-7.701z"></path>
<path fill="#0a2767" opacity="0.1" d="M30.489 17.595l-10.395 5.607c-0.014 0.011-0.032 0.019-0.050 0.027-0.017 0.008-0.036 0.016-0.056 0.023l-0.378-0.21c-0.022-0.011-0.043-0.020-0.061-0.032l-0.025-0.016-10.451-5.776v8.077h21.417v-7.7z"></path>
<path fill="#1490df" d="M31.658 17.198v0l-0.012 0.008-0.004 0.002-11.036 5.95c-0.048 0.029-0.098 0.056-0.148 0.080v0c-0.431 0.201-0.927 0.201-1.358 0v0c-0.050-0.024-0.099-0.051-0.148-0.080l0.52 3.71 11.001 3.266c0.32 0.002 0.634-0.094 0.896-0.276 0.392-0.263 0.628-0.7 0.631-1.17v-12.048c-0.003 0.234-0.134 0.448-0.341 0.557z"></path>
<path fill="#000" opacity="0.05" d="M21.034 22.937l-0.41 0.221c-0.047 0.030-0.096 0.055-0.148 0.079v0c-0.429 0.201-0.927 0.201-1.357 0v0c-0.051-0.024-0.1-0.049-0.148-0.079l0.52 3.711 11.001 3.266c0.32 0 0.635-0.095 0.898-0.276 0.294-0.2 0.503-0.499 0.589-0.84l-10.944-6.082z"></path>
<path fill="#000" opacity="0.05" d="M31.894 29.259l-11.121-6.181-0.149 0.081c-0.047 0.030-0.096 0.055-0.148 0.079v0c-0.429 0.201-0.927 0.201-1.357 0v0c-0.051-0.024-0.1-0.049-0.148-0.079l0.52 3.711 11.001 3.266c0.32 0 0.635-0.095 0.898-0.276 0.221-0.151 0.394-0.36 0.505-0.601z"></path>
<path fill="#000" opacity="0.05" d="M31.771 29.477l-11.258-6.255-0.037 0.017c-0.429 0.201-0.927 0.201-1.357 0v0c-0.051-0.024-0.1-0.050-0.148-0.081l0.52 3.712 11.001 3.265c0.32 0.001 0.635-0.095 0.898-0.275 0.151-0.103 0.279-0.234 0.382-0.383z"></path>
<path fill="#000" opacity="0.05" d="M31.61 29.674l-11.406-6.337c-0.361 0.095-0.745 0.060-1.086-0.099v0c-0.050-0.024-0.099-0.051-0.148-0.080l0.52 3.712 11.001 3.266c0.32 0 0.635-0.095 0.898-0.276 0.078-0.056 0.153-0.118 0.221-0.186z"></path>
<path fill="#28a8ea" d="M31.404 29.847c-0.032 0.021-0.066 0.045-0.099 0.065-0.032 0.019-0.068 0.037-0.102 0.055-0.041 0.019-0.079 0.037-0.12 0.055-0.002 0-0.006 0.003-0.007 0.003-0.046 0.017-0.093 0.031-0.137 0.044-0.050 0.018-0.102 0.030-0.155 0.038-0.013 0.004-0.024 0.006-0.037 0.008-0.029 0.005-0.056 0.008-0.087 0.010-0.054 0.008-0.108 0.011-0.163 0.011h-21.388c-0.836 0.009-1.522-0.656-1.531-1.488v0-12.006l0.353 0.196c0.003 0.002 0.003 0.002 0.005 0.002l1.136 0.631 9.938 5.489c0.048 0.030 0.098 0.056 0.148 0.082l0.625 0.348 0.396 0.219h0.002l11.223 6.239z"></path>
<path fill="#000" opacity="0.05" d="M17.136 9.126v14.926c0 0.169-0.032 0.336-0.095 0.491-0.034 0.087-0.078 0.172-0.131 0.25-0.060 0.094-0.132 0.178-0.215 0.251-0.041 0.038-0.084 0.073-0.129 0.105-0.081 0.056-0.168 0.108-0.261 0.146-0.166 0.069-0.345 0.105-0.526 0.105h-8.218v-1.002h0.018v-7.757c-0-0.238 0.127-0.457 0.335-0.574l0.008-0.008c0.005 0 0.009-0.006 0.014-0.006l1.136-0.635v-7.795h6.707c0.212 0.001 0.42 0.061 0.6 0.173 0.462 0.287 0.747 0.787 0.756 1.329z"></path>
<path fill="#000" opacity="0.075" d="M16.946 9.151v14.651c0.001 0.263-0.073 0.521-0.218 0.741-0.058 0.093-0.128 0.177-0.21 0.25-0.044 0.043-0.090 0.081-0.14 0.113-0.052 0.039-0.107 0.073-0.166 0.101-0.026 0.015-0.052 0.024-0.076 0.037-0.166 0.070-0.345 0.105-0.525 0.105h-8.053v-0.751h0.018v-7.757c-0-0.238 0.127-0.457 0.335-0.574l0.008-0.008c0.005 0 0.009-0.006 0.014-0.006l1.136-0.635v-7.732h6.517c0.29 0.003 0.568 0.107 0.79 0.293 0.352 0.289 0.562 0.717 0.567 1.172z"></path>
<path fill="#000" opacity="0.1" d="M16.757 9.174v14.379c0.005 0.356-0.129 0.698-0.377 0.958-0.012 0.011-0.024 0.023-0.038 0.034-0.108 0.105-0.233 0.191-0.371 0.25-0.004 0-0.005 0.003-0.008 0.003-0.163 0.068-0.338 0.103-0.513 0.102h-7.89v-0.5h0.018v-7.757c-0-0.238 0.127-0.457 0.335-0.574l0.008-0.008c0.005 0 0.009-0.006 0.014-0.006l1.136-0.635v-7.67h6.33c0.375 0.006 0.733 0.171 0.977 0.455 0.241 0.267 0.375 0.611 0.377 0.97z"></path>
<path fill="#000" opacity="0.125" d="M16.568 9.196v14.105c0.002 0.253-0.063 0.5-0.189 0.719-0.132 0.23-0.334 0.415-0.577 0.523-0.030 0.012-0.063 0.026-0.095 0.034-0.135 0.047-0.277 0.070-0.421 0.070h-7.725v-0.25h0.018v-7.757c-0-0.238 0.127-0.457 0.335-0.574l0.008-0.008c0.005 0 0.009-0.006 0.014-0.006l1.136-0.635v-7.606h6.14c0.485 0.006 0.93 0.269 1.167 0.691 0.124 0.21 0.189 0.449 0.189 0.693z"></path>
<path fill="#000" opacity="0.2" d="M16.379 9.221v13.83c0.030 0.6-0.36 1.143-0.942 1.307-0.104 0.027-0.21 0.041-0.318 0.040h-7.542v-7.757c-0-0.238 0.127-0.457 0.335-0.574l0.008-0.008c0.005 0 0.009-0.006 0.014-0.006l1.136-0.635v-7.544h5.951c0.748 0 1.356 0.603 1.356 1.347z"></path>
<path fill="#0078d4" d="M1.356 7.874h13.667c0.748 0 1.355 0.603 1.355 1.347v13.579c0 0.744-0.607 1.347-1.355 1.347h-13.667c-0.748 0-1.355-0.603-1.355-1.347v-13.579c0-0.744 0.607-1.347 1.355-1.347z"></path>
<path fill="#fff" d="M4.547 13.793c0.313-0.66 0.816-1.213 1.447-1.588 0.699-0.397 1.494-0.595 2.3-0.572 0.746-0.017 1.482 0.172 2.127 0.543 0.607 0.36 1.096 0.886 1.408 1.518 0.339 0.695 0.508 1.46 0.493 2.232 0.017 0.806-0.158 1.606-0.508 2.335-0.319 0.653-0.823 1.199-1.45 1.57-0.671 0.384-1.435 0.577-2.208 0.559-0.762 0.018-1.514-0.172-2.174-0.55-0.613-0.36-1.108-0.887-1.427-1.52-0.341-0.686-0.512-1.443-0.498-2.205-0.014-0.8 0.153-1.593 0.49-2.321zM6.089 17.523c0.166 0.417 0.449 0.78 0.814 1.046 0.372 0.258 0.818 0.39 1.272 0.379 0.483 0.018 0.96-0.119 1.358-0.391 0.361-0.266 0.636-0.629 0.79-1.048 0.174-0.466 0.259-0.962 0.252-1.459 0.005-0.501-0.075-1.001-0.238-1.477-0.143-0.427-0.408-0.804-0.762-1.085-0.388-0.287-0.863-0.433-1.346-0.413-0.464-0.011-0.92 0.123-1.303 0.384-0.372 0.267-0.66 0.632-0.83 1.055-0.378 0.967-0.38 2.040-0.007 3.011v0z"></path>
</svg>
