<!-- Generated by IcoMoon.io -->
<svg version="1.1" xmlns="http://www.w3.org/2000/svg" width="32" height="32" viewBox="0 0 32 32">
<title>outlook-calendar</title>
<path fill="#0078d4" d="M2.648 0.102h26.703c1.462 0 2.648 1.179 2.648 2.633v26.531c0 1.453-1.186 2.633-2.648 2.633h-26.703c-1.462 0-2.648-1.18-2.648-2.633v-26.531c0-1.454 1.186-2.633 2.648-2.633z"></path>
<path fill="#fff" d="M8.883 11.666c0.611-1.29 1.594-2.37 2.827-3.104 1.365-0.776 2.92-1.162 4.494-1.118 1.459-0.032 2.895 0.335 4.156 1.062 1.186 0.704 2.142 1.732 2.753 2.966 0.662 1.357 0.992 2.852 0.963 4.361 0.032 1.575-0.309 3.139-0.993 4.563-0.622 1.276-1.608 2.343-2.832 3.067-1.311 0.75-2.803 1.128-4.316 1.092-1.489 0.036-2.958-0.336-4.248-1.074-1.198-0.702-2.165-1.735-2.787-2.971-0.666-1.339-1-2.82-0.973-4.309-0.030-1.565 0.297-3.114 0.956-4.537zM11.896 18.955c0.324 0.814 0.877 1.523 1.591 2.043 0.727 0.504 1.598 0.764 2.486 0.74 0.945 0.036 1.876-0.233 2.655-0.765 0.704-0.518 1.242-1.229 1.544-2.047 0.34-0.912 0.506-1.882 0.492-2.852 0.011-0.979-0.146-1.957-0.463-2.886-0.281-0.834-0.798-1.572-1.489-2.121-0.759-0.562-1.688-0.846-2.631-0.807-0.906-0.023-1.798 0.239-2.546 0.75-0.727 0.521-1.29 1.235-1.622 2.061-0.741 1.891-0.745 3.988-0.014 5.884h-0.001z"></path>
</svg>
