<!-- Generated by IcoMoon.io -->
<svg version="1.1" xmlns="http://www.w3.org/2000/svg" width="32" height="32" viewBox="0 0 32 32">
<title>yahoo-calendar</title>
<path fill="#6a27e5" d="M31.998 10.011c0-0.382 0-0.764-0.001-1.146-0.002-0.322-0.006-0.644-0.015-0.966-0.018-0.7-0.061-1.408-0.184-2.101-0.126-0.704-0.334-1.359-0.659-1.999-0.32-0.628-0.738-1.203-1.235-1.702-0.5-0.498-1.073-0.915-1.703-1.235-0.637-0.326-1.293-0.532-1.997-0.658-0.692-0.124-1.401-0.166-2.101-0.184-0.321-0.009-0.644-0.012-0.966-0.015-0.383-0.002-0.765-0.002-1.146-0.002h-11.979c-0.383 0-0.764 0-1.146 0.002-0.322 0.002-0.644 0.006-0.967 0.015-0.7 0.019-1.408 0.060-2.101 0.184-0.704 0.126-1.358 0.334-1.997 0.658-0.628 0.32-1.205 0.737-1.702 1.235-0.5 0.499-0.916 1.073-1.235 1.702-0.326 0.64-0.532 1.295-0.66 1.999-0.124 0.693-0.165 1.401-0.183 2.101-0.009 0.322-0.013 0.644-0.015 0.966-0.003 0.382-0.003 0.764-0.003 1.146v11.979c0 0.382 0 0.764 0.003 1.146 0.002 0.322 0.006 0.644 0.015 0.966 0.020 0.7 0.061 1.408 0.185 2.101 0.126 0.704 0.333 1.36 0.659 1.999 0.32 0.628 0.738 1.203 1.235 1.7 0.498 0.499 1.073 0.917 1.702 1.237 0.638 0.326 1.294 0.532 1.997 0.658 0.693 0.124 1.401 0.166 2.102 0.184 0.321 0.009 0.644 0.012 0.966 0.015 0.381 0.002 0.764 0.002 1.146 0.002h11.979c0.382 0 0.764 0 1.146-0.002 0.321-0.002 0.644-0.006 0.966-0.015 0.701-0.019 1.409-0.061 2.102-0.184 0.704-0.126 1.358-0.334 1.997-0.658 0.628-0.32 1.203-0.738 1.702-1.237 0.499-0.497 0.916-1.073 1.235-1.7 0.326-0.64 0.532-1.295 0.659-1.999 0.125-0.693 0.166-1.399 0.186-2.101 0.009-0.322 0.012-0.644 0.015-0.966 0.002-0.382 0.002-0.764 0.002-1.146v-11.979h-0.002z"></path>
<path fill="#fff" d="M14.385 10.427l-2.75 6.941-2.716-6.941h-4.659l5.134 12.081-1.872 4.355h4.567l6.836-16.437z"></path>
<path fill="#fff" d="M19.496 17.013c-1.559 0-2.823 1.263-2.823 2.824 0 1.559 1.264 2.823 2.823 2.823s2.823-1.263 2.823-2.823v0c0-1.56-1.264-2.824-2.823-2.824v0z"></path>
<path fill="#fff" d="M22.673 5.136l-4.511 10.84h5.083l4.496-10.84z"></path>
</svg>
