<?xml version="1.0" standalone="no"?>
<!DOCTYPE svg PUBLIC "-//W3C//DTD SVG 1.1//EN" "http://www.w3.org/Graphics/SVG/1.1/DTD/svg11.dtd" >
<svg xmlns="http://www.w3.org/2000/svg">
<metadata>Generated by IcoMoon</metadata>
<defs>
<font id="iCicons" horiz-adv-x="1024">
<font-face units-per-em="1024" ascent="960" descent="-64" />
<missing-glyph horiz-adv-x="1024" />
<glyph unicode="&#x20;" horiz-adv-x="512" d="" />
<glyph unicode="&#xe600;" glyph-name="earth" d="M874.034 810.032c96.701-96.703 149.957-225.277 149.957-362.034s-53.258-265.33-149.957-362.032c-96.705-96.701-225.277-149.957-362.034-149.957s-265.33 53.258-362.034 149.957c-96.701 96.703-149.957 225.275-149.957 362.032s53.254 265.332 149.957 362.034c96.705 96.703 225.277 149.959 362.034 149.959s265.33-53.258 362.034-149.959zM828.779 131.219c63.057 63.059 104.984 141.606 122.271 227.059-13.473-19.836-26.362-27.194-34.344 17.205-8.22 72.389-74.707 26.148-116.514 51.86-44.003-29.658-142.904 57.661-126.097-40.823 25.934-44.421 140.006 59.449 83.146-34.541-36.273-65.615-132.64-210.929-120.104-286.254 1.582-109.742-112.132-22.884-151.311 13.519-26.356 72.919-8.982 200.371-77.897 236.083-74.801 3.248-139.002 10.046-167.992 93.669-17.446 59.827 18.564 148.892 82.676 162.642 93.849 58.965 127.372-69.053 215.387-71.433 27.328 28.594 101.815 37.685 107.99 69.749-57.749 10.19 73.267 48.557-5.528 70.381-43.469-5.112-71.477-45.073-48.367-78.957-84.236-19.642-86.935 121.903-167.908 77.257-2.058-70.589-132.22-22.886-45.035-8.572 29.956 13.087-48.859 51.015-6.28 44.123 20.916 1.136 91.331 25.812 72.275 42.401 39.209 24.34 72.159-58.289 110.536 1.882 27.708 46.265-11.619 54.808-46.349 31.356-19.58 21.924 34.569 69.275 82.33 89.737 15.917 6.82 31.122 10.536 42.745 9.484 24.058-27.792 68.549-32.606 70.877 3.342-59.581 28.534-125.275 43.607-193.29 43.607-97.621 0-190.468-31.024-267.304-88.389 20.65-9.46 32.372-21.238 12.477-36.295-15.455-46.053-78.169-107.874-133.222-99.123-28.586-49.295-47.411-103.604-55.46-160.526 46.111-15.255 56.744-45.449 46.835-55.55-23.496-20.488-37.935-49.529-45.375-81.32 15.009-91.835 58.171-176.473 125.269-243.572 84.614-84.612 197.115-131.212 316.779-131.212 119.662 0 232.165 46.599 316.779 131.212z" />
<glyph unicode="&#xe601;" glyph-name="timezone" d="M511.993 959.993c-282.769 0-512-229.231-512-512 0-282.771 229.231-512 512-512 282.771 0 512 229.229 512 512 0 282.769-229.229 512-512 512zM801.689 277.326c9.152 43.151 14.929 88.951 16.809 136.533h135.942c-3.558-47.142-14.532-92.922-32.725-136.533h-120.026zM222.297 618.659c-9.152-43.151-14.929-88.951-16.809-136.533h-135.94c3.558 47.14 14.53 92.922 32.723 136.533h120.026zM731.764 618.659c10.255-43.693 16.425-89.444 18.432-136.533h-204.070v136.533h185.638zM546.126 686.926v199.827c15.563-4.529 30.98-12.128 46.11-22.795 28.354-19.989 55.479-50.782 78.443-89.052 15.874-26.455 29.602-55.91 41.062-87.983h-165.615zM353.307 774.909c22.963 38.27 50.086 69.065 78.443 89.052 15.127 10.667 30.547 18.266 46.11 22.795v-199.829h-165.615c11.462 32.070 25.19 61.525 41.062 87.983zM477.859 618.659v-136.533h-204.068c2.005 47.089 8.177 92.841 18.43 136.533h185.638zM102.273 277.326c-18.193 43.612-29.165 89.391-32.723 136.533h135.94c1.879-47.582 7.657-93.382 16.809-136.533h-120.026zM273.791 413.859h204.068v-136.533h-185.638c-10.253 43.691-16.425 89.444-18.43 136.533zM477.859 209.059v-199.829c-15.561 4.529-30.98 12.13-46.11 22.795-28.356 19.989-55.482 50.784-78.443 89.052-15.874 26.458-29.6 55.913-41.065 87.983h165.617zM670.679 121.076c-22.963-38.268-50.089-69.062-78.443-89.052-15.13-10.665-30.547-18.266-46.11-22.795v199.829h165.617c-11.462-32.070-25.19-61.525-41.065-87.983zM546.126 277.326v136.533h204.068c-2.005-47.089-8.177-92.843-18.432-136.533h-185.636zM818.497 482.126c-1.879 47.582-7.657 93.382-16.809 136.533h120.026c18.193-43.612 29.167-89.393 32.725-136.533h-135.942zM886.028 686.926h-102.293c-19.881 62.679-47.334 117.647-80.337 161.523 45.372-21.696 86.462-50.79 122.362-86.69 22.912-22.91 43.053-47.934 60.269-74.833zM198.226 761.759c35.902 35.902 76.992 64.994 122.362 86.69-33.005-43.876-60.454-98.844-80.337-161.523h-102.291c17.214 26.899 37.357 51.923 60.267 74.833zM137.96 209.059h102.291c19.883-62.679 47.334-117.647 80.339-161.525-45.372 21.696-86.462 50.79-122.362 86.692-22.912 22.91-43.055 47.934-60.269 74.833zM825.759 134.226c-35.9-35.902-76.992-64.996-122.362-86.692 33.005 43.876 60.457 98.846 80.337 161.525h102.293c-17.216-26.899-37.357-51.923-60.269-74.833z" />
<glyph unicode="&#xe602;" glyph-name="print-2" d="M256 896h512v-128h-512zM960 704h-896c-35.2 0-64-28.8-64-64v-320c0-35.2 28.796-64 64-64h192v-256h512v256h192c35.2 0 64 28.8 64 64v320c0 35.2-28.8 64-64 64zM704 64h-384v320h384v-320zM974.4 608c0-25.626-20.774-46.4-46.398-46.4-25.626 0-46.402 20.774-46.402 46.4s20.776 46.4 46.402 46.4c25.626 0 46.398-20.774 46.398-46.4z" />
<glyph unicode="&#xe605;" glyph-name="location-2" d="M512 960c-176.732 0-320-143.268-320-320 0-320 320-704 320-704s320 384 320 704c0 176.732-143.27 320-320 320zM512 448c-106.040 0-192 85.96-192 192s85.96 192 192 192 192-85.96 192-192-85.96-192-192-192z" />
<glyph unicode="&#xe606;" glyph-name="iclogo, icagenda" d="M897.89 826.733l25.001-91.744c-6.088-51.912-22.28-122.995-48.544-213.412-20.596 48.35-42.002 92.554-64.542 132.775-54.826 22.183-108.811 33.291-161.694 33.291-86.531 0-154.052-25.486-202.563-76.589-48.803-51.297-73.123-111.337-73.123-180.186 0-37.728 10.169-70.209 30.733-97.412 20.273-26.911 59.036-51.879 116.421-74.937 57.676-22.96 129.731-40.286 216.262-51.944 28.79-4.178 58.389-7.416 88.441-10.039 30.312-2.429 63.408-4.469 99.452-5.797 36.011-1.36 69.723-2.073 101.071-2.073l-73.253-96.084c-108.066-20.208-210.109-30.279-306.031-30.279-126.622 0-219.273 24.288-277.759 72.702-59.069 48.285-88.571 111.013-88.571 188.152 0 85.397 24.515 169.466 73.609 252.208 48.479 82.45 115.029 146.636 199.616 192.362 84.523 45.726 169.175 68.525 254.054 68.525 28.336-0.032 58.68-3.206 91.421-9.521zM70.733 827.348c54.729-2.494 93.72-7.772 116.939-15.803 22.96-8.031 34.424-23.867 34.424-47.443 0-57.514-22.863-138.183-68.428-241.942-37.112-22.248-76.686-39.93-118.72-52.916 24.936 122.121 37.436 225.362 37.436 309.82 0.032 15.544-0.615 31.607-1.652 48.285zM37.313 428.181c25.843-1.101 46.925-2.656 63.376-4.566 16.516-2.008 29.34-4.048 38.44-6.218 16.937-4.566 25.292-17.617 25.292-39.379 0-21.114-7.351-42.067-21.924-62.631-14.443-20.92-29.243-31.413-44.496-31.413-22.377 0-54.794 9.229-97.153 27.656 20.273 47.572 32.384 86.466 36.465 116.551z" />
<glyph unicode="&#xe608;" glyph-name="lock-2" d="M832 512h-64v192c0 141.384-114.616 256-256 256s-256-114.616-256-256v-192h-64c-35.2 0-64-28.8-64-64v-448c0-35.2 28.8-64 64-64h640c35.2 0 64 28.8 64 64v448c0 35.2-28.8 64-64 64zM512 128c-35.346 0-64 28.654-64 64s28.654 64 64 64 64-28.654 64-64-28.654-64-64-64zM640 512h-256v192c0 70.58 57.42 128 128 128s128-57.42 128-128v-192z" />
<glyph unicode="&#xe609;" glyph-name="register-2" d="M448 165.49l-205.254 237.254 58.508 58.51 146.746-114.744 274.744 242.744 58.512-58.508zM831.772 832c0.078-0.066 0.162-0.15 0.228-0.23v-767.542c-0.066-0.078-0.15-0.162-0.228-0.228h-639.544c-0.080 0.066-0.162 0.15-0.228 0.228v767.544c0.066 0.080 0.15 0.162 0.23 0.228h-128.23v-768c0-70.4 57.6-128 128-128h640c70.4 0 128 57.6 128 128v768h-128.228zM640 832v64c0 35.346-28.654 64-64 64h-128c-35.346 0-64-28.654-64-64v-64h-128v-128h512v128h-128zM576 832h-128v64h128v-64z" />
<glyph unicode="&#xe60b;" glyph-name="people" d="M976-56.007h-672c-26.51 0-48 21.49-48 48 0 68.862 29.068 152.204 77.758 222.942 40.692 59.118 90.684 103.62 144.678 129.61-23.798 21.644-44.294 48.026-60.508 78.122-26 48.262-39.746 104.048-39.746 161.328 0 79.606 26.204 154.822 73.786 211.79 49.664 59.46 116.442 92.208 188.032 92.208s138.368-32.748 188.034-92.21c47.58-56.968 73.786-132.182 73.786-211.79 0-57.28-13.744-113.066-39.744-161.328-16.214-30.096-36.71-56.478-60.51-78.122 53.994-25.99 103.986-70.492 144.678-129.61 48.688-70.736 77.756-154.078 77.756-222.94 0-26.51-21.49-48-48-48zM358.074 39.993h563.852c-9.226 39.34-28.52 82.384-54.762 120.51-41.454 60.226-93.176 99.622-145.638 110.926-22.106 4.764-37.888 24.31-37.888 46.924v34.292c0 17.26 9.266 33.19 24.27 41.722 59.478 33.832 97.912 108.266 97.912 189.626 0 114.692-74.384 208-165.818 208s-165.818-93.308-165.818-208c0-81.36 38.434-155.792 97.914-189.626 15.002-8.534 24.268-24.462 24.268-41.722v-34.292c0-22.614-15.784-42.16-37.888-46.924-52.462-11.304-104.184-50.7-145.64-110.926-26.246-38.126-45.536-81.17-54.764-120.51zM197.114 103.993h-95.040c9.228 39.34 28.518 82.384 54.76 120.51 41.456 60.226 93.178 99.622 145.64 110.926 22.106 4.764 37.888 24.31 37.888 46.924v34.292c0 17.26-9.266 33.19-24.268 41.722-59.48 33.834-97.914 108.266-97.914 189.626 0 114.692 74.384 208 165.818 208 6.254 0 12.426-0.452 18.502-1.302 26.358 29.334 56.234 53.174 88.642 71.004-33.192 17.232-69.5 26.298-107.142 26.298-71.59 0-138.368-32.748-188.034-92.21-47.58-56.968-73.784-132.184-73.784-211.79 0-57.28 13.744-113.066 39.746-161.328 16.214-30.096 36.71-56.476 60.508-78.122-53.994-25.99-103.986-70.492-144.678-129.61-48.69-70.736-77.758-154.078-77.758-222.94 0-26.51 21.49-48 48-48h132.386c1.476 31.026 7.198 63.412 16.728 96z" />
<glyph unicode="&#xe60c;" glyph-name="thumbs-2" d="M128 704v-640h896v640h-896zM960 170.666l-128 213.334-145.066-120.888-110.934 184.888-384-320v512h768v-469.334zM256 480c0 53.019 42.981 96 96 96s96-42.981 96-96c0-53.019-42.981-96-96-96s-96 42.981-96 96zM896 832h-896v-640h64v576h832z" />
<glyph unicode="&#xe60d;" glyph-name="clock-2" d="M512 832c-247.424 0-448-200.576-448-448s200.576-448 448-448 448 200.576 448 448-200.576 448-448 448zM512 24c-198.824 0-360 161.178-360 360 0 198.824 161.176 360 360 360 198.822 0 360-161.176 360-360 0-198.822-161.178-360-360-360zM934.784 672.826c16.042 28.052 25.216 60.542 25.216 95.174 0 106.040-85.96 192-192 192-61.818 0-116.802-29.222-151.92-74.596 131.884-27.236 245.206-105.198 318.704-212.578zM407.92 885.404c-35.116 45.374-90.102 74.596-151.92 74.596-106.040 0-192-85.96-192-192 0-34.632 9.174-67.122 25.216-95.174 73.5 107.38 186.822 185.342 318.704 212.578zM448 640h64v-320h-64v320zM512 384h192v-64h-192v64z" />
<glyph unicode="&#xe60e;" glyph-name="screen" d="M921.6 898.56h-819.2c-56.32 0-102.4-46.080-102.4-102.4v-563.2c0-56.32 45.158-111.462 100.403-122.522l223.846-44.749c0 0-192.666-68.25-68.25-68.25h512c124.416 0-68.25 68.25-68.25 68.25l223.846 44.749c55.194 11.059 100.403 66.202 100.403 122.522v563.2c0 56.32-46.080 102.4-102.4 102.4zM921.6 238.080h-819.2v568.32h819.2v-568.32z" />
<glyph unicode="&#xe60f;" glyph-name="options" d="M363.724 237.951l41.297 57.815-45.253 45.255-57.817-41.295c-10.722 5.994-22.204 10.774-34.266 14.191l-11.681 70.083h-63.999l-11.679-70.085c-12.061-3.418-23.544-8.198-34.266-14.191l-57.817 41.297-45.255-45.255 41.297-57.815c-5.994-10.72-10.774-22.206-14.191-34.266l-70.085-11.681v-63.999l70.085-11.681c3.418-12.059 8.198-23.544 14.191-34.266l-41.297-57.815 45.253-45.255 57.817 41.295c10.722-5.994 22.204-10.774 34.266-14.191l11.681-70.083h63.999l11.679 70.085c12.061 3.418 23.544 8.198 34.266 14.191l57.817-41.295 45.253 45.255-41.297 57.815c5.994 10.72 10.774 22.206 14.191 34.266l70.087 11.679v63.999l-70.085 11.681c-3.418 12.059-8.198 23.544-14.191 34.266zM224.005 96.005c-35.347 0-63.999 28.654-63.999 63.999s28.652 63.999 63.999 63.999 63.999-28.654 63.999-63.999-28.652-63.999-63.999-63.999zM1023.993 575.998v63.999l-67.381 12.249c-1.242 8.046-2.832 15.977-4.724 23.79l57.557 37.099-24.492 59.127-66.943-14.467c-4.214 6.91-8.726 13.619-13.491 20.13l39.005 56.342-45.255 45.253-56.342-39.005c-6.512 4.766-13.219 9.276-20.13 13.493l14.467 66.943-59.127 24.494-37.099-57.557c-7.812 1.892-15.743 3.482-23.79 4.724l-12.251 67.381h-63.999l-12.251-67.381c-8.046-1.242-15.975-2.832-23.79-4.724l-37.097 57.557-59.127-24.492 14.467-66.943c-6.91-4.216-13.619-8.728-20.13-13.493l-56.342 39.005-45.253-45.253 39.005-56.342c-4.766-6.51-9.278-13.219-13.493-20.13l-66.943 14.467-24.492-59.127 57.557-37.099c-1.892-7.812-3.482-15.741-4.724-23.79l-67.383-12.251v-63.999l67.381-12.249c1.242-8.046 2.832-15.977 4.724-23.79l-57.557-37.099 24.492-59.127 66.943 14.467c4.216-6.91 8.728-13.617 13.493-20.13l-39.005-56.342 45.253-45.255 56.342 39.005c6.51-4.766 13.219-9.276 20.13-13.491l-14.467-66.943 59.127-24.492 37.101 57.557c7.81-1.892 15.741-3.482 23.788-4.724l12.251-67.383h63.999l12.251 67.381c8.044 1.242 15.975 2.832 23.79 4.724l37.099-57.557 59.127 24.492-14.467 66.943c6.91 4.216 13.619 8.726 20.13 13.491l56.342-39.005 45.255 45.255-39.005 56.342c4.766 6.512 9.276 13.219 13.491 20.13l66.943-14.467 24.492 59.129-57.557 37.099c1.892 7.812 3.482 15.741 4.724 23.79l67.381 12.249zM671.998 468.8c-76.877 0-139.198 62.321-139.198 139.198s62.319 139.198 139.198 139.198 139.198-62.321 139.198-139.198c0-76.877-62.319-139.198-139.198-139.198z" />
<glyph unicode="&#xe610;" glyph-name="icons" d="M290.144 959.975h-153.593c-93.862 0-136.527-42.665-136.527-136.527v-153.593c0-93.862 42.665-136.527 136.527-136.527h153.593c93.862 0 136.527 42.665 136.527 136.527v153.593c0 93.862-42.665 136.527-136.527 136.527zM887.449 959.975h-153.593c-93.862 0-136.527-42.665-136.527-136.527v-153.593c0-93.862 42.665-136.527 136.527-136.527h153.593c93.862 0 136.527 42.665 136.527 136.527v153.593c0 93.862-42.665 136.527-136.527 136.527zM290.144 362.671h-153.593c-93.862 0-136.527-42.665-136.527-136.527v-153.593c0-93.862 42.665-136.527 136.527-136.527h153.593c93.862 0 136.527 42.665 136.527 136.527v153.593c0 93.862-42.665 136.527-136.527 136.527zM887.449 362.671h-153.593c-93.862 0-136.527-42.665-136.527-136.527v-153.593c0-93.862 42.665-136.527 136.527-136.527h153.593c93.862 0 136.527 42.665 136.527 136.527v153.593c0 93.862-42.665 136.527-136.527 136.527z" />
<glyph unicode="&#xe611;" glyph-name="filter-2" d="M512 960c-282.77 0-512-71.634-512-160v-96l384-384v-320c0-35.346 57.306-64 128-64 70.692 0 128 28.654 128 64v320l384 384v96c0 88.366-229.23 160-512 160zM94.384 821.176c23.944 13.658 57.582 26.62 97.278 37.488 87.944 24.076 201.708 37.336 320.338 37.336 118.628 0 232.394-13.26 320.338-37.336 39.696-10.868 73.334-23.83 97.28-37.488 15.792-9.006 24.324-16.624 28.296-21.176-3.972-4.552-12.506-12.168-28.296-21.176-23.946-13.658-57.584-26.62-97.28-37.488-87.942-24.076-201.708-37.336-320.338-37.336s-232.394 13.26-320.338 37.336c-39.696 10.868-73.334 23.83-97.278 37.488-15.792 9.008-24.324 16.624-28.298 21.176 3.974 4.552 12.506 12.168 28.298 21.176z" />
<glyph unicode="&#xe613;" glyph-name="info-2" d="M636.518 960c68.608 0 102.912-46.797 102.912-100.25 0-66.765-59.597-128.563-137.114-128.563-65.024 0-102.912 38.4-101.12 101.837 0 53.504 45.056 126.976 135.322 126.976zM425.421-64c-54.17 0-93.85 33.382-55.962 180.378l62.157 260.659c10.803 41.728 12.595 58.47 0 58.47-16.282 0-86.528-28.826-128.102-57.242l-27.034 45.107c131.738 111.923 283.238 177.51 348.211 177.51 54.118 0 63.078-65.126 36.096-165.325l-71.219-274.022c-12.595-48.435-7.219-65.126 5.376-65.126 16.282 0 69.478 20.122 121.805 61.85l30.72-41.728c-128.051-130.355-267.93-180.531-322.048-180.531z" />
<glyph unicode="&#xe614;" glyph-name="info-circle" d="M505.154 959.948c-282.715-3.785-508.887-236.078-505.102-518.849 3.785-282.604 236.078-508.831 518.792-505.047s508.887 236.078 505.102 518.849c-3.728 282.659-236.078 508.831-518.792 505.047zM561.92 789.317c52.035 0 67.395-30.163 67.395-64.724 0-43.131-34.56-83.033-93.496-83.033-49.308 0-72.737 24.821-71.346 65.781 0 34.56 28.939 81.977 97.447 81.977zM428.466 127.998c-35.562 0-61.607 21.594-36.731 116.537l40.794 168.293c7.067 26.991 8.237 37.788 0 37.788-10.629 0-56.821-18.644-84.146-37.009l-17.753 29.107c86.54 72.237 186.047 114.644 228.676 114.644 35.562 0 41.461-42.073 23.708-106.797l-46.748-176.975c-8.237-31.276-4.675-42.073 3.562-42.073 10.629 0 45.635 12.911 80.029 39.959l20.090-26.991c-84.091-84.091-175.862-116.481-211.48-116.481z" />
<glyph unicode="&#xe615;" glyph-name="navigation" d="M0 448l373.76-235.52v470.989l-373.76-235.469zM1024 448.051l-373.76 235.469-0.051-471.040 373.811 235.571z" />
<glyph unicode="&#xe616;" glyph-name="form-2" d="M864 832h-64v-64h32v-512h-256v-256h-384v768h32v64h-64c-17.602 0-32-14.4-32-32v-832c0-17.6 14.398-32 32-32h504l232 232v632c0 17.6-14.4 32-32 32zM640 0v192h192l-192-192zM768 832h-128v64c0 35.2-28.8 64-64 64h-128c-35.204 0-64-28.8-64-64v-64h-128v-128h512v128zM576 832h-128v63.886c0.034 0.038 0.072 0.078 0.114 0.114h127.768c0.042-0.036 0.082-0.076 0.118-0.114v-63.886z" />
<glyph unicode="&#xe617;" glyph-name="header-after" d="M115.328 818.336h793.344v-189.44h-793.344v189.44z" />
<glyph unicode="&#xe618;" glyph-name="header-before" d="M152.128 528.928h719.744v-91.552h-719.744v91.552zM908.576-56.064h-793.184c-59.264 0-107.488 48.224-107.488 107.488v793.184c0 59.264 48.224 107.488 107.488 107.488h793.184c59.264 0 107.456-48.224 107.456-107.488v-793.184c0.032-28.736-11.168-55.744-31.424-76.032s-47.296-31.456-76.032-31.456v0zM115.392 920.096c-41.632 0-75.488-33.856-75.488-75.488v-793.184c0-41.632 33.856-75.488 75.488-75.488h793.184c41.632 0 75.488 33.888 75.488 75.488l-0.032 793.184c0 41.632-33.856 75.488-75.456 75.488h-793.184zM152.128 342.656h719.744v-91.52h-719.744v91.52zM152.128 160.512h719.744v-91.52h-719.744v91.52z" />
<glyph unicode="&#xe900;" glyph-name="dashboard" horiz-adv-x="1152" d="M0.001 320c0 318.2 257.799 576 575.999 576s576-257.8 576-576c0-100-25.6-194.2-70.4-276.2-15.4-28-45.8-43.8-77.8-43.8h-855.54c-32.040 0-62.46 15.8-77.84 43.8-44.9 82-70.42 176.2-70.42 276.2h0.001zM512 704c0-35.4 28.6-64 64-64s64 28.6 64 64c0 35.4-28.6 64-64 64s-64-28.6-64-64zM256 320c0 35.4-28.6 64-64 64-35.34 0-64-28.6-64-64s28.66-64 64-64c35.4 0 64 28.6 64 64zM896 320c0-35.4 28.6-64 64-64s64 28.6 64 64c0 35.4-28.6 64-64 64s-64-28.6-64-64zM384 576c0 35.4-28.6 64-64 64s-64-28.6-64-64c0-35.4 28.6-64 64-64s64 28.6 64 64zM686.8 128c11 18.8 17.2 40.6 17.2 64 0 26.8-8.2 51.6-22.2 72.2l188.4 285.2c16.4 22 10.4 51.8-11.6 66.6-22 14.6-51.8 8.6-66.6-13.4l-190.2-285.2c-8.2 1.6-17 2.6-25.8 2.6-70.6 0-128-57.4-128-128 0-23.4 6.2-45.2 17.2-64h221.6z" />
<glyph unicode="&#xe901;" glyph-name="home" horiz-adv-x="951" d="M804.571 393.143v-274.286c0-20-16.571-36.571-36.571-36.571h-219.429v219.429h-146.286v-219.429h-219.429c-20 0-36.571 16.571-36.571 36.571v274.286c0 1.143 0.571 2.286 0.571 3.429l328.571 270.857 328.571-270.857c0.571-1.143 0.571-2.286 0.571-3.429zM932 432.571l-35.429-42.286c-2.857-3.429-7.429-5.714-12-6.286h-1.714c-4.571 0-8.571 1.143-12 4l-395.429 329.714-395.429-329.714c-4-2.857-8.571-4.571-13.714-4-4.571 0.571-9.143 2.857-12 6.286l-35.429 42.286c-6.286 7.429-5.143 19.429 2.286 25.714l410.857 342.286c24 20 62.857 20 86.857 0l139.429-116.571v111.429c0 10.286 8 18.286 18.286 18.286h109.714c10.286 0 18.286-8 18.286-18.286v-233.143l125.143-104c7.429-6.286 8.571-18.286 2.286-25.714z" />
<glyph unicode="&#xe902;" glyph-name="folder-open, categories" horiz-adv-x="1152" d="M295.6 576h664.4v96c0 53-43 96-96 96h-320l-128 128h-320c-53.020 0-96-42.98-96-96v-656.8l181.080 362.2c21.72 43.4 65.72 70.6 114.52 70.6zM1086.2 512h-790.6c-24.2 0-46.4-13.6-57.2-35.4l-238.4-476.6h894.2c24.24 0 46.4 13.704 57.24 35.38l192 384c22.96 42.62-8.040 92.62-57.24 92.62z" />
<glyph unicode="&#xe903;" glyph-name="calendar" horiz-adv-x="896" d="M192 896c0 35.34 28.6 64 64 64s64-28.66 64-64v-64h256v64c0 35.34 28.6 64 64 64s64-28.66 64-64v-64h96c53 0 96-42.98 96-96v-96h-896v96c0 53.020 42.98 96 96 96h96v64zM896 32c0-53-43-96-96-96h-704c-53.020 0-96 43-96 96v544h896v-544z" />
<glyph unicode="&#xe904;" glyph-name="user-check, registrations" horiz-adv-x="1280" d="M549.4 352h-202.8c-191.38 0-346.6-155.2-346.6-346.6 0-38.4 31.040-69.4 69.32-69.4h757.28c38.4 0 69.4 31 69.4 69.4 0 191.4-155.2 346.6-346.6 346.6zM448 448c141.4 0 256 114.62 256 256s-114.6 256-256 256c-141.4 0-256-114.62-256-256s114.6-256 256-256zM1264.6 691.2c-19.406 18-49.82 16.906-67.84-2.532l-174.1-187.5-76.78 76.78c-18.75 18.75-49.12 18.75-67.88 0s-18.75-49.12 0-67.88l112-112c9-9.068 21.2-14.068 34-14.068h0.875c13.062 0.25 25.44 5.782 34.32 15.344l208 224c18.005 19.456 16.805 49.856-2.595 67.856z" />
<glyph unicode="&#xe905;" glyph-name="paper-plane, newsletter" d="M1023.2 886.28l-128-830.2c-3-19.468-14.75-36.44-31.94-46.1-9.688-5.438-20.54-8.194-31.36-8.194-8.376 0-16.638 1.631-24.58 4.944l-245.2 102.2-101.72-152.58c-7.8-13.35-20.8-20.35-34.8-20.35-23 0-41.6 18.6-41.6 41.6v192.36c0 14.23 4.744 28.060 13.484 39.28l434.516 558.76-587.4-528.6-205.22 85.6c-22.504 9.4-37.755 30.6-39.255 56.8s10.938 47.44 32.12 59.54l896 510.2c21.38 12.218 47.76 11.094 68-2.812s30.755-38.168 26.955-62.448z" />
<glyph unicode="&#xe906;" glyph-name="backward" d="M919 817.18l-343-285.8v-166.9l343-285.8c41.2-34.080 105-5.28 105 51.12v638.14c0 54.74-63.8 83.5-105 49.24zM407 817.18l-384.12-319.98c-30.5-25.74-30.5-72.74 0-98.48l384-318.2c41.26-34.24 105.020-5.498 105.020 49.24v639.8c-1.7 53.12-63.7 81.88-104.9 47.62z" />
<glyph unicode="&#xe907;" glyph-name="rectangle-list, customfields" horiz-adv-x="1152" d="M0 768c0 70.7 57.3 128 128 128h896c70.6 0 128-57.3 128-128v-640c0-70.6-57.4-128-128-128h-896c-70.7 0-128 57.4-128 128v640zM320 448c0 35.4-28.6 64-64 64s-64-28.6-64-64c0-35.4 28.6-64 64-64s64 28.6 64 64zM320 640c0 35.4-28.6 64-64 64s-64-28.6-64-64c0-35.4 28.6-64 64-64s64 28.6 64 64zM320 256c0 35.4-28.6 64-64 64s-64-28.6-64-64c0-35.4 28.6-64 64-64s64 28.6 64 64zM448 688c-26.6 0-48-21.4-48-48s21.4-48 48-48h448c26.6 0 48 21.4 48 48s-21.4 48-48 48h-448zM448 496c-26.6 0-48-21.4-48-48s21.4-48 48-48h448c26.6 0 48 21.4 48 48s-21.4 48-48 48h-448zM448 304c-26.6 0-48-21.4-48-48s21.4-48 48-48h448c26.6 0 48 21.4 48 48s-21.4 48-48 48h-448z" />
<glyph unicode="&#xe908;" glyph-name="forward" d="M105.020 78.8l343 285.8v166.8l-343 285.78c-41.26 34.26-105.020 5.5-105.020-49.24v-639.8c0-54.74 63.76-83.54 105.020-49.34zM617 78.8l384 318.2c30.5 25.74 30.5 72.74 0 98.48l-384 318.2c-41.26 34.24-105.020 5.498-105.020-49.24v-639.8c0.020-51.24 63.82-80.040 105.020-45.84z" />
<glyph unicode="&#xe909;" glyph-name="calendar-day" horiz-adv-x="896" d="M320 896v-64h256v64c0 35.34 28.6 64 64 64s64-28.66 64-64v-64h96c53 0 96-42.98 96-96v-96h-896v96c0 53.020 42.98 96 96 96h96v64c0 35.34 28.6 64 64 64s64-28.66 64-64zM0 576h896v-544c0-53-43-96-96-96h-704c-53.020 0-96 43-96 96v544zM160 448c-17.68 0-32-14.4-32-32v-192c0-17.6 14.32-32 32-32h192c17.6 0 32 14.4 32 32v192c0 17.6-14.4 32-32 32h-192z" />
<glyph unicode="&#xe90a;" glyph-name="calendar-days, calendar-2, events" horiz-adv-x="896" d="M320 896v-64h256v64c0 35.34 28.6 64 64 64s64-28.66 64-64v-64h96c53 0 96-42.98 96-96v-96h-896v96c0 53.020 42.98 96 96 96h96v64c0 35.34 28.6 64 64 64s64-28.66 64-64zM0 576h896v-544c0-53-43-96-96-96h-704c-53.020 0-96 43-96 96v544zM128 352c0-17.6 14.32-32 32-32h64c17.6 0 32 14.4 32 32v64c0 17.6-14.4 32-32 32h-64c-17.68 0-32-14.4-32-32v-64zM384 352c0-17.6 14.4-32 32-32h64c17.6 0 32 14.4 32 32v64c0 17.6-14.4 32-32 32h-64c-17.6 0-32-14.4-32-32v-64zM672 448c-17.6 0-32-14.4-32-32v-64c0-17.6 14.4-32 32-32h64c17.6 0 32 14.4 32 32v64c0 17.6-14.4 32-32 32h-64zM128 96c0-17.6 14.32-32 32-32h64c17.6 0 32 14.4 32 32v64c0 17.6-14.4 32-32 32h-64c-17.68 0-32-14.4-32-32v-64zM416 192c-17.6 0-32-14.4-32-32v-64c0-17.6 14.4-32 32-32h64c17.6 0 32 14.4 32 32v64c0 17.6-14.4 32-32 32h-64zM640 96c0-17.6 14.4-32 32-32h64c17.6 0 32 14.4 32 32v64c0 17.6-14.4 32-32 32h-64c-17.6 0-32-14.4-32-32v-64z" />
<glyph unicode="&#xe90b;" glyph-name="calendar-week" horiz-adv-x="896" d="M320 896v-64h256v64c0 35.34 28.6 64 64 64s64-28.66 64-64v-64h96c53 0 96-42.98 96-96v-96h-896v96c0 53.020 42.98 96 96 96h96v64c0 35.34 28.6 64 64 64s64-28.66 64-64zM0 576h896v-544c0-53-43-96-96-96h-704c-53.020 0-96 43-96 96v544zM160 448c-17.68 0-32-14.4-32-32v-128c0-17.6 14.32-32 32-32h576c17.6 0 32 14.4 32 32v128c0 17.6-14.4 32-32 32h-576z" />
<glyph unicode="&#xe90c;" glyph-name="calendar-check" horiz-adv-x="896" d="M320 896v-64h256v64c0 35.34 28.6 64 64 64s64-28.66 64-64v-64h96c53 0 96-42.98 96-96v-96h-896v96c0 53.020 42.98 96 96 96h96v64c0 35.34 28.6 64 64 64s64-28.66 64-64zM0 576h896v-544c0-53-43-96-96-96h-704c-53.020 0-96 43-96 96v544zM656.2 351.8c20.4 17 20.4 47.4 0 66.2-17 18.6-47.4 18.6-66.2 0l-190-190.2-95.8 94.2c-17 18.6-47.4 18.6-66.2 0-18.6-18.8-18.6-49.2 0-66.2l128-128c18.8-20.4 49.2-20.4 66.2 0l224 224z" />
<glyph unicode="&#xe90d;" glyph-name="calendar-plus" horiz-adv-x="896" d="M192 896c0 35.34 28.6 64 64 64s64-28.66 64-64v-64h256v64c0 35.34 28.6 64 64 64s64-28.66 64-64v-64h96c53 0 96-42.98 96-96v-96h-896v96c0 53.020 42.98 96 96 96h96v64zM896 32c0-53-43-96-96-96h-704c-53.020 0-96 43-96 96v544h896v-544zM400 416v-112h-112c-26.6 0-48-21.4-48-48s21.4-48 48-48h112v-112c0-26.6 21.4-48 48-48s48 21.4 48 48v112h112c26.6 0 48 21.4 48 48s-21.4 48-48 48h-112v112c0 26.6-21.4 48-48 48s-48-21.4-48-48z" />
<glyph unicode="&#xe90e;" glyph-name="back" horiz-adv-x="896" d="M47.2 365.4l704-416.2c57.2-33.8 144.8-1 144.8 82.6v832.2c0 75-81.4 120.2-144.8 82.6l-704-416c-62.8-37-63-128.2 0-165.2z" />
<glyph unicode="&#xe90f;" glyph-name="next" horiz-adv-x="896" d="M848.8 530.6l-704 416.2c-57.2 33.8-144.8 1-144.8-82.6v-832.2c0-75 81.4-120.2 144.8-82.6l704 416c62.8 37 63 128.2 0 165.2z" />
<glyph unicode="&#xe910;" glyph-name="calendar-minus" horiz-adv-x="896" d="M320 896v-64h256v64c0 35.34 28.6 64 64 64s64-28.66 64-64v-64h96c53 0 96-42.98 96-96v-96h-896v96c0 53.020 42.98 96 96 96h96v64c0 35.34 28.6 64 64 64s64-28.66 64-64zM0 576h896v-544c0-53-43-96-96-96h-704c-53.020 0-96 43-96 96v544zM624 208c26.6 0 48 21.4 48 48s-21.4 48-48 48h-352c-26.6 0-48-21.4-48-48s21.4-48 48-48h352z" />
<glyph unicode="&#xe911;" glyph-name="reset-2" d="M512 896c-141.384 0-269.376-57.32-362.032-149.978l-149.968 149.978v-384h384l-143.532 143.522c69.496 69.492 165.492 112.478 271.532 112.478 212.068 0 384-171.924 384-384 0-114.696-50.292-217.636-130.018-288l84.666-96c106.302 93.816 173.352 231.076 173.352 384 0 282.77-229.23 512-512 512z" />
<glyph unicode="&#xe912;" glyph-name="search-2" d="M992.262 88.604l-242.552 206.294c-25.074 22.566-51.89 32.926-73.552 31.926 57.256 67.068 91.842 154.078 91.842 249.176 0 212.078-171.922 384-384 384-212.076 0-384-171.922-384-384s171.922-384 384-384c95.098 0 182.108 34.586 249.176 91.844-1-21.662 9.36-48.478 31.926-73.552l206.294-242.552c35.322-39.246 93.022-42.554 128.22-7.356s31.892 92.898-7.354 128.22zM384 320c-141.384 0-256 114.616-256 256s114.616 256 256 256 256-114.616 256-256-114.614-256-256-256z" />
<glyph unicode="&#xe913;" glyph-name="calendar-xmark" horiz-adv-x="896" d="M320 896v-64h256v64c0 35.34 28.6 64 64 64s64-28.66 64-64v-64h96c53 0 96-42.98 96-96v-96h-896v96c0 53.020 42.98 96 96 96h96v64c0 35.34 28.6 64 64 64s64-28.66 64-64zM0 576h896v-544c0-53-43-96-96-96h-704c-53.020 0-96 43-96 96v544zM608.2 351.8c20.4 17 20.4 47.4 0 66.2-17 18.6-47.4 18.6-66.2 0l-94-94.2-95.8 94.2c-17 18.6-47.4 18.6-66.2 0-18.6-18.8-18.6-49.2 0-66.2l94.2-95.8-94.2-94c-18.6-18.8-18.6-49.2 0-66.2 18.8-20.4 49.2-20.4 66.2 0l95.8 92.4 94-92.4c18.8-20.4 49.2-20.4 66.2 0 20.4 17 20.4 47.4 0 66.2l-92.4 94 92.4 95.8z" />
<glyph unicode="&#xe914;" glyph-name="arrow-down" d="M132.198 686.029c-13.875 13.722-36.301 13.722-50.125 0-13.824-13.67-13.824-35.891 0-49.613l404.89-400.896c13.875-13.722 36.25-13.722 50.125 0l404.89 400.896c13.824 13.722 13.875 35.891 0 49.613s-36.352 13.722-50.125 0.051l-379.853-365.619-379.802 365.568z" />
<glyph unicode="&#xe915;" glyph-name="arrow-up" d="M891.802 235.571c13.875-13.722 36.301-13.722 50.125 0 13.875 13.722 13.875 35.891 0 49.613l-404.89 400.896c-13.824 13.722-36.25 13.722-50.074 0l-404.89-400.896c-13.824-13.722-13.875-35.891 0-49.613s36.25-13.722 50.125 0l379.802 365.619 379.802-365.619z" />
<glyph unicode="&#xe916;" glyph-name="eye-2" d="M512 768c-223.318 0-416.882-130.042-512-320 95.118-189.958 288.682-320 512-320 223.312 0 416.876 130.042 512 320-95.116 189.958-288.688 320-512 320zM764.45 598.296c60.162-38.374 111.142-89.774 149.434-150.296-38.292-60.522-89.274-111.922-149.436-150.296-75.594-48.218-162.89-73.704-252.448-73.704-89.56 0-176.858 25.486-252.452 73.704-60.158 38.372-111.138 89.772-149.432 150.296 38.292 60.524 89.274 111.924 149.434 150.296 3.918 2.5 7.876 4.922 11.86 7.3-9.96-27.328-15.41-56.822-15.41-87.596 0-141.382 114.616-256 256-256s256 114.618 256 256c0 30.774-5.452 60.268-15.408 87.598 3.978-2.378 7.938-4.802 11.858-7.302v0zM512 544c0-53.020-42.98-96-96-96s-96 42.98-96 96 42.98 96 96 96 96-42.982 96-96z" />
<glyph unicode="&#xe917;" glyph-name="eye-close-2" d="M945.942 945.942c-18.746 18.744-49.136 18.744-67.882 0l-202.164-202.164c-51.938 15.754-106.948 24.222-163.896 24.222-223.318 0-416.882-130.042-512-320 41.122-82.124 100.648-153.040 173.022-207.096l-158.962-158.962c-18.746-18.746-18.746-49.136 0-67.882 9.372-9.374 21.656-14.060 33.94-14.060s24.568 4.686 33.942 14.058l864 864c18.744 18.746 18.744 49.138 0 67.884zM416 640c42.24 0 78.082-27.294 90.92-65.196l-121.724-121.724c-37.902 12.838-65.196 48.68-65.196 90.92 0 53.020 42.98 96 96 96zM110.116 448c38.292 60.524 89.274 111.924 149.434 150.296 3.918 2.5 7.876 4.922 11.862 7.3-9.962-27.328-15.412-56.822-15.412-87.596 0-54.89 17.286-105.738 46.7-147.418l-60.924-60.924c-52.446 36.842-97.202 83.882-131.66 138.342zM768 518c0 27.166-4.256 53.334-12.102 77.898l-321.808-321.808c24.568-7.842 50.742-12.090 77.91-12.090 141.382 0 256 114.618 256 256zM830.026 670.026l-69.362-69.362c1.264-0.786 2.53-1.568 3.786-2.368 60.162-38.374 111.142-89.774 149.434-150.296-38.292-60.522-89.274-111.922-149.436-150.296-75.594-48.218-162.89-73.704-252.448-73.704-38.664 0-76.902 4.76-113.962 14.040l-76.894-76.894c59.718-21.462 123.95-33.146 190.856-33.146 223.31 0 416.876 130.042 512 320-45.022 89.916-112.118 166.396-193.974 222.026z" />
<glyph unicode="&#xe918;" glyph-name="avatar" d="M848-24h-672c-26.51 0-48 21.49-48 48 0 68.862 29.068 152.204 77.758 222.942 40.692 59.117 90.685 103.62 144.678 129.609-23.798 21.645-44.294 48.026-60.508 78.122-26 48.262-39.746 104.048-39.746 161.328 0 79.606 26.204 154.822 73.786 211.79 49.664 59.461 116.442 92.209 188.032 92.209s138.368-32.748 188.034-92.21c47.58-56.968 73.786-132.182 73.786-211.79 0-57.28-13.744-113.066-39.744-161.328-16.214-30.096-36.71-56.478-60.51-78.122 53.993-25.99 103.985-70.492 144.678-129.609 48.688-70.737 77.756-154.079 77.756-222.941 0-26.51-21.49-48-48-48v0z" />
<glyph unicode="&#xe919;" glyph-name="folder" d="M928 768h-384l-128 128h-320c-53 0-96-43-96-96v-160h1024v32c0 53-43 96-96 96zM0 96c0-53 43-96 96-96h832c53 0 96 43 96 96v480h-1024v-480z" />
<glyph unicode="&#xe91a;" glyph-name="folder-tree" horiz-adv-x="1152" d="M1088 896h-224l-64 64h-160c-35.24 0-64-28.76-64-64v-320c0-35.24 28.76-64 64-64h448c35.24 0 64 28.76 64 64v256c0 35.24-28.8 64-64 64zM1088 320h-224l-64 64h-160c-35.24 0-64-28.76-64-64v-320c0-35.24 28.76-64 64-64h448c35.24 0 64 28.76 64 64v256c0 35.2-28.8 64-64 64zM128 928c0 17.75-14.24 32-32 32h-64c-17.75 0-32-14.25-32-32v-800c0-35.24 28.76-64 64-64h448v128h-384v448h384v128h-384v160z" />
<glyph unicode="&#xe91b;" glyph-name="square-envelope" horiz-adv-x="896" d="M768 896h-640c-70.74 0-128-57.26-128-128v-640c0-70.76 57.24-128 128-128h640c70.76 0 128 57.24 128 128v640c0 70.74-57.2 128-128 128zM768 288c0-35.34-28.66-64-64-64h-512c-35.34 0-64 28.66-64 64v220.2l277-138.54c13.6-6.66 28.2-10.060 43-10.060s29.5 3.376 42.94 10.094l277.060 138.506v-220.2zM768 579.8l-305.6-152.84c-9-4.5-19.624-4.5-28.62 0l-305.78 152.84v28.2c0 35.34 28.66 64 64 64h512c35.34 0 64-28.66 64-64v-28.2z" />
<glyph unicode="&#xe91c;" glyph-name="envelope" d="M512 256c-33.060 0-66.12 10.844-94.32 32.82l-417.68 324.78v-453.6c0-53 42.98-96 96-96h832c53.020 0 96 42.98 96 96v453.6l-417.6-325c-28.2-21.8-61.4-32.6-94.4-32.6zM32.58 669.4l424.4-330.2c32.38-25.2 77.74-25.2 110.12 0l424.4 330.2c18.7 16 32.5 40.6 32.5 66.6 0 53.020-43 96-96 96h-832c-53.020 0-96-42.98-96-96 0-26 12.020-50.6 32.58-66.6z" />
<glyph unicode="&#xe91d;" glyph-name="envelope-open" d="M987.2 634c-49.76 39.24-91 70.74-328.6 243.2-33.2 24.38-99.2 82.8-145.8 82.8h-1.6c-46.6 0-112.6-58.42-146-82.76-237.6-172.5-278.8-202.2-328.6-243.2-23.1-18.040-36.6-46.040-36.6-75.64v-526.4c0-53 42.98-96 96-96h832c53.020 0 96 42.98 96 94.2v528.2c0 29.6-13.4 57.6-36.8 75.6zM606.4 225c-28.2-22-61.4-33-94.4-33s-66.12 10.968-94.32 32.94l-289.68 225.26v92.8c42.32 33.18 92.96 71.32 312.8 231 6.36 4.656 13.782 10.374 21.96 16.706 11.040 8.414 32.84 25.354 49.24 35.614 16.414-10.262 38.28-27.2 49.22-35.68 8.18-6.332 15.602-12.054 22.3-16.956 218.28-158.684 269.68-197.084 312.48-230.684v-92.64l-289.6-225.36z" />
<glyph unicode="&#xe91e;" glyph-name="envelope-open-text" d="M512 125.8c-32.76 0-65.76 8.2-93.76 30.24l-418.24 302.16v-426.2c0-53 43-96 96-96h832c53 0 96 43 96 94.2v428l-418.2-302.2c-28-20-61-30.2-93.8-30.2zM987.2 634c-17.6 14-34.4 27-59.2 45.8v88.24c0 53-43 96-96 96l-155-0.003c-6.25 4.5-11.75 8.5-18.25 13-33.55 24.703-100.15 83.71-146.75 82.96-46.4 0.75-113.2-58.256-146.8-82.996-6.5-4.5-12-8.5-18.25-13h-154.95c-53 0-96-43-96-96v-88.24c-24.74-18.76-41.5-31.76-59.24-45.76-23.26-18-36.76-46-36.76-75.6v-21.24l192-138.74v369.58h640v-369.4l192 138.74v21.060c0 29.6-13.4 57.6-36.8 75.6zM352 449.8h320c17.672 0 32 14.328 32 30.2 0 17.676-14.328 32-32 32h-320c-17.672 0-32-14.324-32-32 0-17.6 14.4-30.2 32-30.2zM352 577.8h320c17.672 0 32 14.328 32 32 0 17.676-14.328 30.2-32 30.2h-320c-17.672 0-32-14.324-32-30.2 0-19.4 14.4-32 32-32z" />
<glyph unicode="&#xe91f;" glyph-name="house-chimney" horiz-adv-x="1152" d="M1023.6 384.8l1.4-320.2c0-5.6-0.4-10.8-1-16.2v-32.4c0-44.2-35.8-80-80-80h-32c-2.2 0-4.4 1.8-6.6 0.2-2.8 1.6-5.6-0.2-8.4-0.2h-113c-44.2 0-80 35.8-80 80v176c0 35.4-28.6 64-64 64h-128c-35.4 0-64-28.6-64-64v-176c0-44.2-35.8-80-80-80h-111.8c-3 0-6 0.2-9 0.4-2.4-0.2-4.8-0.4-7.2-0.4h-32c-44.18 0-80 35.8-80 80v224c0 1.8 0.060 3.8 0.18 5.6v139.2h-64.080c-36.060 0-64.1 28.2-64.1 64.2 0 18 6.008 34 20.020 48l512.78 446.968c14 14.028 30 16.032 44 16.032s30-4.008 42.2-14.028l213-187.372v73.4c0 35.34 28.6 64 64 64h64c35.4 0 64-28.66 64-64v-242l105.6-93c16-14 24.2-30 22-48 0-36-30-64.2-64-64.2h-64z" />
<glyph unicode="&#xe920;" glyph-name="square-check, features" horiz-adv-x="896" d="M768 896h-640c-70.7 0-128-57.3-128-128v-640c0-70.7 57.3-128 128-128h640c70.7 0 128 57.3 128 128v640c0 70.7-57.4 128-128 128zM679.6 536.4l-256-256c-11-11-25.2-16.4-39.6-16.4s-28.68 5.438-39.62 16.376l-128 128c-21.82 21.88-21.82 57.38 0 79.26 21.88 21.88 57.38 21.88 79.26 0l88.36-88.436 216.4 216.4c21.88 21.88 57.38 21.88 79.26 0 21.74-21.8 21.74-57.4-0.060-79.2z" />
<glyph unicode="&#xe921;" glyph-name="palette, themes" d="M408.6 949.966c-198.8-38.806-359-198.766-398.258-396.966-72.2-374 263.4-652.8 517.6-613.4 82.38 12.812 122.82 109.22 85 183.4-46.18 90.82 19.794 196.8 121.8 196.8h159.4c71.62 0 129.6 59.18 129.8 130.62-0.942 315.32-287.742 563.36-615.342 499.546zM192 320c-35.38 0-64 28.62-64 64s28.62 64.060 62.2 64.060 64-28.62 64-62.2c0-37.26-26.8-65.86-62.2-65.86zM256 576c-35.38 0-64 28.62-64 64s28.62 64 64 64 64-28.62 64-64-28.6-64-64-64zM512 704c-35.38 0-64 28.62-64 64s28.6 63.92 64 63.92 64-28.62 64-64-28.6-63.92-64-63.92zM768 576c-35.38 0-64 28.62-64 64s28.62 64 64 64 64-28.62 64-64-28.6-64-64-64z" />
<glyph unicode="&#xe922;" glyph-name="circle-info, information" d="M512 960c-282.8 0-512-229.2-512-512s229.2-512 512-512 512 229.2 512 512-229.2 512-512 512zM512 704c35.34 0 64-28.66 64-64s-28.66-64-64-64-64 28.6-64 64c0 35.4 28.6 64 64 64zM592 192h-160c-26.4 0-48 21.4-48 48s21.5 48 48 48h32v128h-16c-26.5 0-48 21.5-48 48s21.6 48 48 48h64c26.5 0 48-21.5 48-48v-176h32c26.5 0 48-21.5 48-48s-21.4-48-48-48z" />
<glyph unicode="&#xe923;" glyph-name="location" horiz-adv-x="768" d="M336.6-38.4c-104.4 128.4-336.6 439.6-336.6 614.4 0 212.080 171.92 384 384 384 212 0 384-171.92 384-384 0-174.8-234-486-336.6-614.4-24.6-30.6-70.2-30.6-94.8 0v0zM384 448c70.6 0 128 57.4 128 128s-57.4 128-128 128c-70.6 0-128-57.4-128-128s57.4-128 128-128z" />
<glyph unicode="&#xe924;" glyph-name="filter" d="M1009.2 791.62l-369.2-445.22v-298.4c0-39.040-43.94-61.4-75.5-39.32l-160 111.96c-12.9 8.96-20.5 23.76-20.5 39.36v186.4l-369.25 445.22c-34.68 41.82-4.324 104.38 50.65 104.38h893.2c55 0 83.6-62.56 50.6-104.38z" />
<glyph unicode="&#xe925;" glyph-name="filter-circle-xmark" horiz-adv-x="1152" d="M765.6 561.8l243.8 292.2c32.8 43.44 4.2 106-50.8 106h-893.2c-54.974 0-85.33-62.56-50.65-104.38l369.25-445.22v-186.4c0-15.656 7.624-30.34 20.5-39.32l133.76-93.6c-16.86 41.12-26.26 85.92-26.26 132.92 0 159.8 107.2 295 253.6 337.8zM864 512c-159 0-288-129-288-288s128.94-288 288-288 288 128.94 288 288-129 288-288 288zM977 156.2c12.484-12.484 12.504-32.74 0.020-45.24-12.48-12.484-32.74-12.462-45.24 0.023l-67.82 67.82-67.82-67.82c-12.484-12.484-32.74-12.506-45.24-0.021s-12.464 32.74 0.020 45.24l67.82 67.82-67.82 67.82c-12.484 12.484-12.502 32.74-0.018 45.24s32.74 12.464 45.24-0.021l67.82-67.82 67.82 67.82c12.484 12.484 32.74 12.508 45.22 0.023s12.466-32.74-0.018-45.24l-67.82-67.82 67.837-67.823z" />
<glyph unicode="&#xe926;" glyph-name="lock, private" horiz-adv-x="896" d="M768 513.8l-32-1.8v160c0 158.82-129.18 288-288 288s-288-129.18-288-288v-160l-32 1.8c-70.7 0-128-57.3-128-128v-320c0-70.68 57.3-128 128-128h640c70.7 0 128 57.32 128 128v320c0 68.8-57.4 128-128 128zM288 672c0 88.24 71.8 160 160 160s160-71.76 160-160v-160h-320v160z" />
<glyph unicode="&#xe927;" glyph-name="ban, blocked" d="M512 960c-282.8 0-512-229.2-512-512s229.2-512 512-512 512 229.2 512 512-229.2 512-512 512zM128 448c0 82.8 26.6 159.36 71.36 222.2l534.8-534.8c-62.76-44.8-139.36-71.4-222.16-71.4-211.8 0-384 172.2-384 384zM824.6 225.8l-534.8 534.84c62.8 44.76 139.4 71.36 222.2 71.36 211.8 0 384-172.26 384-384 0-82.8-26.6-159.4-71.4-222.2z" />
<glyph unicode="&#xe928;" glyph-name="list-check" d="M304.2 883.68c19.6-17.74 21.2-48.080 3.4-67.8l-143.92-160.080c-8.82-9.6-21.26-15.4-34.42-14-13.16-2.2-25.88 3-35.2 14l-80.002 80c-18.744 17-18.744 47.4 0 66.14 18.742 18.74 49.142 18.74 67.882 0l44.22-44.14 110.24 122.32c17.6 19.7 48 21.3 67.8 3.56v0zM304.2 563.6c19.6-17.6 21.2-48 3.4-67.8l-143.92-160c-8.82-9.6-21.26-15.4-34.42-14-13.16-2.2-25.88 3-35.2 14l-80.002 80c-18.744 17-18.744 47.4 0 66.2 18.742 18.6 49.142 18.6 67.882 0l44.22-44.2 110.24 122.4c17.6 19.6 48 21.2 67.8 3.4v0zM448 768c0 35.34 28.6 64 64 64h448c35.4 0 64-28.66 64-64 0-35.4-28.6-64-64-64h-448c-35.4 0-64 28.6-64 64v0zM448 448c0 35.4 28.6 64 64 64h448c35.4 0 64-28.6 64-64s-28.6-64-64-64h-448c-35.4 0-64 28.6-64 64zM320 128c0 35.4 28.6 64 64 64h576c35.4 0 64-28.6 64-64s-28.6-64-64-64h-576c-35.4 0-64 28.6-64 64zM0 128c0 53 42.98 96 96 96s96-43 96-96c0-53-42.98-96-96-96s-96 43-96 96z" />
<glyph unicode="&#xe929;" glyph-name="tags" horiz-adv-x="1280" d="M995.882 508.118l-423.764 423.764c-17.373 17.373-41.372 28.118-67.882 28.118h-408.236c-53.020 0-96-42.98-96-96v-408.236c0-26.51 10.745-50.509 28.118-67.882l423.764-423.764c37.488-37.49 98.272-37.492 135.764 0l408.236 408.236c37.49 37.49 37.49 98.274 0 135.764zM224 640c-53.020 0-96 42.98-96 96s42.98 96 96 96 96-42.98 96-96-42.98-96-96-96zM1251.882 372.354l-408.236-408.236c-37.49-37.49-98.274-37.49-135.764 0l-0.72 0.72 348.118 348.118c33.998 33.998 52.72 79.2 52.72 127.28s-18.724 93.282-52.72 127.28l-392.486 392.484h97.442c26.51 0 50.509-10.745 67.882-28.118l423.764-423.764c37.49-37.49 37.49-98.274 0-135.764z" />
<glyph unicode="&#xe92a;" glyph-name="tag" horiz-adv-x="896" d="M96 896h299c34 0 66.4-13.48 90.4-37.5l352-351.9c50-50 50-131.2 0-181.2l-266.8-266.8c-50-50-131.2-50-181.2 0l-351.9 352c-24.014 24-37.5 56.4-37.5 90.4v299c0 53.020 42.98 96 96 96v0zM224 608c35.4 0 64 28.6 64 64s-28.6 64-64 64c-35.34 0-64-28.6-64-64s28.66-64 64-64z" />
<glyph unicode="&#xe92b;" glyph-name="play" d="M352 0c-54.8 0-96 44.8-96 96v704c0 50.76 40.8 95.96 96.020 95.96 17.372 0 34.7-4.704 50.040-14.062l576-352c28.54-17.498 45.94-48.498 45.94-81.898s-17.406-64.46-45.94-81.9l-576-352c-15.26-9.3-32.66-14.1-50.060-14.1z" />
<glyph unicode="&#xe92c;" glyph-name="clipboard-check" horiz-adv-x="768" d="M672 832h-107.76c-26.44 74.4-96.84 128-180.24 128s-153.8-53.6-180.2-128h-107.8c-53 0-96-42.96-96-96v-704c0-53 43-96 96-96h576c53 0 96 42.96 96 96v704c0 53.040-43 96-96 96zM384 832c35.34 0 64-28.66 64-64s-28.66-64-64-64-64 28.6-64 64 28.6 64 64 64zM565.8 434.4l-176-224c-8.094-10.312-20.040-16.876-33.060-18.124-1.54 1.524-3.14-0.276-4.74-0.276-11.406 0-22.5 4.062-31.24 11.562l-112 96c-20.12 17.25-22.44 47.56-5.188 67.68 17.218 20.12 47.54 22.44 67.68 5.188l73.96-63.38 145.040 184.56c16.376 20.88 46.6 24.44 67.4 8.124 20.948-16.334 24.548-46.534 8.148-67.334z" />
<glyph unicode="&#xe92d;" glyph-name="mobile" horiz-adv-x="768" d="M608 960h-448c-70.7 0-128-57.3-128-128v-768c0-70.7 57.3-128 128-128h448c70.7 0 128 57.3 128 128v768c0 70.7-57.4 128-128 128zM384 0c-35.5 0-64 28.5-64 64s28.5 64 64 64 64-28.5 64-64-28.4-64-64-64zM608 832v-640h-448v640h448z" />
<glyph unicode="&#xe92e;" glyph-name="tablet" horiz-adv-x="896" d="M768 960h-640c-70.7 0-128-57.3-128-128v-768c0-70.7 57.3-126.2 128-126.2h640c70.7 0 128 57.3 128 126.2v768c0 70.7-57.4 128-128 128zM448 0c-35.5 0-64 28.5-64 64s28.5 64 64 64 64-28.5 64-64-28.4-64-64-64zM768 192h-640v640h640v-640z" />
<glyph unicode="&#xe92f;" glyph-name="desktop" horiz-adv-x="1152" d="M1056 960h-960c-53 0-96-43-96-96v-640c0-53 43-96 96-96h384l-32-96h-144c-26.4 0-48-21.6-48-48s21.6-48 48-48h544c26.5 0 48 21.5 48 48s-21.5 48-48 48h-144l-32 96h384c53 0 96 43 96 96v640c0 53-43 96-96 96zM1024 384h-896v448h896v-448z" />
<glyph unicode="&#xe930;" glyph-name="print" d="M896 576h-768c-70.7 0-128-57.4-128-128v-192c0-35.34 28.66-64 64-64h64v-192c0-35.34 28.66-64 64-64h640c35.34 0 64 28.66 64 64v192h64c35.34 0 64 28.66 64 64v192c0 70.6-57.4 128-128 128zM768 64h-512v192h512v-192zM864 368c-26.5 0-48 21.5-48 48 0 26.54 21.5 48 48 48s48-21.46 48-48c0-26.6-21.4-48-48-48zM256 832h459l53-53.020v-138.98h128v165.5c0 16.968-6.75 33.24-18.75 45.24l-90.5 90.5c-11.95 12.010-28.35 18.76-45.15 18.76h-549.6c-35.32 0-64-28.66-64-64v-256h128v192z" />
<glyph unicode="&#xe931;" glyph-name="sign-in, register" d="M689.4 483l-288.2 272c-13.8 13.060-34.4 16.66-52 9.1-17.6-7.7-29-24.9-29-44.1v-144h-256.16c-35.38 0-64.040-28.6-64.040-64v-128c0-35.36 28.66-64 64.040-64h256.2v-144c0-19.156 11.414-36.5 29.020-44.1 17.606-7.562 38.060-3.968 52 9.188l288.2 272c19.14 18.112 19.14 51.712-0.060 69.912zM832 896h-128c-35.34 0-64-28.66-64-64s28.66-64 64-64h128c35.34 0 64-28.66 64-64v-512c0-35.34-28.66-64-64-64h-128c-35.34 0-64-28.66-64-64s28.66-64 64-64h128c106.040 0 192 85.96 192 192v512c0 106.040-86 192-192 192z" />
<glyph unicode="&#xe932;" glyph-name="sign-out" d="M192 0h128c35.4 0 64 28.6 64 64s-28.6 64-64 64h-128c-35.34 0-64 28.66-64 64v512c0 35.34 28.66 64 64 64h128c35.4 0 64 28.66 64 64s-28.6 64-64 64h-128c-106.040 0-192-85.96-192-192v-512c0-106 85.96-192 192-192zM1009.6 483l-288.2 272c-13.95 13.156-34.4 16.75-52 9.188-17.606-7.594-29.020-24.94-29.020-44.1l-0.184-144-256 0.002c-35.38 0-64.040-28.66-64.040-64v-128c0-35.34 28.68-64 64.040-64l256-0.002 0.184-142.2c0-19.156 11.414-36.5 29.020-44.1 17.606-7.562 38.060-3.968 52 9.188l288.2 272c19.2 16.224 19.2 49.824 0 68.024z" />
<glyph unicode="&#xe933;" glyph-name="images, thumbs" horiz-adv-x="1152" d="M1024 896h-704c-70.7 0-128-57.3-128-128v-448c0-70.7 57.3-128 128-128h704c70.7 0 128 57.3 128 128v448c0 70.7-57.4 128-128 128zM1056 320c0-17.644-14.356-32-32-32h-32l-218.6 321.8c-6 8.8-16 14.2-26.8 14.2-10.704 0-20.7-5.344-26.62-14.25l-125.48-188.22-44.7 61.27c-6 8.4-15.6 13.2-25.8 13.2-10.218 0-19.828-4.882-25.86-13.148l-146.14-194.852h-32c-17.644 0-32 14.356-32 32v448c0 17.644 14.356 32 32 32h704c17.644 0 32-14.356 32-32v-448zM448 736c-35.34 0-64-28.66-64-64s28.66-64 64-64c35.36 0 64 28.66 64 64s-28.6 64-64 64zM912 0h-672c-132.34 0-240 107.6-240 240v480c0 26.4 21.5 48 48 48s48-21.6 48-48v-480c0-79.4 64.6-144 144-144h672c26.5 0 48-21.5 48-48s-21.4-48-48-48z" />
<glyph unicode="&#xe934;" glyph-name="shield" d="M933 792.58l-384 160c-9.8 4.080-26.4 7.42-37 7.42s-27-3.34-36.8-7.404l-384-160c-35.8-14.796-59.2-49.796-59.2-86.796 0-514.4 378.4-768 478.2-768 102.2 0 480 256.4 480 768 1.8 37-21.6 72-57.2 86.78zM512 67l0.047 762.2c0.012 0.047 0 0 0 0l351.8-146.34c-8.247-362.26-225.847-557.060-351.847-615.86z" />
<glyph unicode="&#xe935;" glyph-name="clock" d="M512-64c-282.8 0-512 229.2-512 512s229.2 512 512 512c282.8 0 512-229.2 512-512s-229.2-512-512-512zM464 448c0-16 8-31 21.4-38.2l192-128c22-16.4 51.8-10.4 64.8 11.6 16.4 22 10.4 51.8-11.6 66.6l-170.6 113.6v246.4c0 26.6-21.4 48-49.8 48-24.8 0-48-21.4-48-48l1.8-272z" />
<glyph unicode="&#xe936;" glyph-name="user-lock, permissions" horiz-adv-x="1280" d="M1184 384h-32v150.6c0 83.68-60.060 160.080-143.32 168.54-95.68 9.66-176.68-65.34-176.68-159.14v-160h-32c-52.8 0-96-43.2-96-96v-256c0-52.8 43.2-96 96-96h384c52.8 0 96 43.2 96 96v256c0 52.8-43.2 96-96 96zM992 96c-35.24 0-64 28.76-64 64s28.76 64 64 64 64-28.76 64-64-28.8-64-64-64zM1056 384h-128v160c0 35.24 28.76 64 64 64s64-28.76 64-64v-160zM448 448c141.4 0 256 114.62 256 256s-114.6 256-256 256c-141.4 0-256-114.62-256-256s114.6-256 256-256zM640 288c0 17.344 3.476 33.74 8.606 49.4-31.406 9.4-64.806 14.6-99.206 14.6h-202.8c-191.38 0-346.6-155.4-346.6-346.8 0-38.2 31.040-69.2 69.32-69.2h603.4c-20.12 26.8-32.72 59.8-32.72 96v256z" />
<glyph unicode="&#xe937;" glyph-name="user-shield" horiz-adv-x="1280" d="M1244.6 417.8l-230.2 90.020c-8.25 3.258-25.24 7.508-44.5 0l-230.3-90.020c-21.6-8.2-35.6-28-35.6-48 0-223.2 137.5-377.6 265.8-427.8 19.25-7.5 36-3.25 44.5 0 102.5 38.2 265.7 177 265.7 427.8 0 20-14 39.8-35.4 48zM992 35.2v378.4l191-74.76c-11.2-174.44-121.8-270.84-191-303.64zM448 448c141.4 0 256 114.62 256 256s-114.6 256-256 256c-141.4 0-256-114.62-256-256s114.6-256 256-256zM641.2 339.4c-29.4 8-60 12.6-91.8 12.6h-202.8c-191.38 0-346.6-155.4-346.6-346.8 0-38.2 31.040-69.2 69.32-69.2h757.28c6.286 0 11.934 2.008 17.722 3.578-104.922 80.822-196.122 219.822-203.122 399.822z" />
<glyph unicode="&#xe938;" glyph-name="user-gear" horiz-adv-x="1280" d="M850.2-5.2c-4.606 2.5-9.144 5.118-13.618 7.86l-15.636-8.986c-12.004-7.008-25.66-10.704-39.5-10.704-21.42 0-42.26 8.984-57.94 25.5-36.82 40.18-64.58 88.3-80.44 139.8-10.704 36.12 4.686 73.74 35.66 90.48l16.036 9.338c-0.133 5.242-0.133 10.484 0 15.718l-15.31 8.922c-24.6 13.906-38.8 39.32-39.28 66.76-28.972 7.912-59.372 12.512-90.772 12.512h-202.8c-191.38 0-346.6-155.4-346.6-346.8 0-38.2 31.040-69.2 69.32-69.2h757.28c11.454 0 21.8 3.454 31.32 8.376-4.542 9.968-7.72 20.6-7.72 32.12v18.304zM448 448c141.4 0 256 114.62 256 256s-114.6 256-256 256c-141.4 0-256-114.62-256-256s114.6-256 256-256zM1221 213.4c5.25 28 5.25 57 0 85l51.5 30c6 3.25 8.75 10.25 6.75 17-13.5 43-36.5 82.26-66.5 114.76-4.5 5-12 6.25-18 2.75l-51.5-29.76c-21.76 18.5-46.76 33-73.76 42.5v59.75c0 6.75-5 12.75-11.5 14-44.5 10-90 9.75-132.5 0-6.5-1.25-11.25-7.25-11.25-14v-59.76c-27-9.5-52-24-73.76-42.5l-51.68 29.86c-5.75 3.5-13.25 2.25-18-2.75-30-32.5-53-71.76-66.26-114.76-2-6.75 0.75-13.75 6.5-17l51.5-30c-5-28-5-57 0-85l-51.5-30c-6-3.25-8.5-10.25-6.5-17 13.25-43 36.26-82 66.26-114.76 4.75-5 12-6.25 18-2.75l51.76 29.76c21.76-18.5 46.76-33 73.76-42.5v-59.76c0-6.75 4.75-12.75 11.25-14 44.76-10 90-9.75 132.5 0 6.5 1.25 11.5 7.25 11.5 14v59.76c27 9.5 52 24 73.76 42.5l51.5-29.76c5.75-3.5 13.5-2.25 18 2.75 30 32.5 53 71.76 66.5 114.76 2 6.75-0.75 13.75-6.75 17l-51.58 29.91zM992 159c-53.5 0-97 43.5-97 97s43.5 97 97 97c53.5 0 97-43.5 97-97s-43.4-97-97-97z" />
<glyph unicode="&#xe939;" glyph-name="users-gear" horiz-adv-x="1280" d="M1024 640c88.36 0 160 71.64 160 160s-71.6 160-160 160c-88.36 0-160-71.64-160-160s71.6-160 160-160zM256 640c88.36 0 160 71.64 160 160s-71.6 160-160 160c-88.36 0-160-71.64-160-160s71.64-160 160-160zM639.8 320c114.82 0 206.2 93.12 206.2 208s-93.080 208-206.2 208c-114.82 0-206.2-93.12-206.2-208-1.8-114.8 91.4-208 206.2-208zM736 160c0 33.38 6.796 64.92 17.238 94.72-4.638 0.28-8.838 1.28-13.438 1.28h-199.6c-157 0-284.2-119.4-284.2-266.6 0-29.6 25.4-53.4 56.8-53.4h532.2c-66 52.8-109 133-109 224zM367.8 528c0 10.898 1.965 21.26 3.218 31.82-21.818 11.98-45.818 16.18-71.218 16.18h-123.64c-97.28 0-176.16-83.6-176.16-186.6 0-20.6 15.774-37.4 35.24-37.4h399c-40.84 47.6-66.44 108.6-66.44 176zM1103.8 576h-123.68c-25.6 0-49.76-6.074-71.72-16.48 1.2-10.52 3.2-20.72 3.2-31.52 0-42.94-11.25-82.76-29.3-118.68 42.1 23.88 89.9 38.68 141.7 38.68 84.96 0 160.54-37.48 213.2-96h7.512c19.488 0 35.288 16.8 35.288 37.4 0 103-78.8 186.6-176.2 186.6zM1236.2 226.6c-10.050 32.020-27.18 61.24-49.5 85.42-3.348 3.722-8.934 4.652-13.398 2.046l-38.34-22.14c-16.192 13.774-34.8 24.56-54.9 31.64v46.234c0 5.028-3.722 9.492-8.562 10.426-33.12 7.446-67 7.258-98.64 0-3.060-2.626-6.66-7.226-6.66-10.426v-44.48c-20.1-7.074-38.72-17.864-54.9-31.64l-38.52 22.14c-4.278 2.606-9.864 1.676-13.394-2.046-22.34-24.2-39.46-53.42-49.32-85.42-1.488-5.024 0.559-10.234 4.84-12.652l38.34-22.34c-3.718-20.84-3.718-42.42 0-63.28l-38.34-22.34c-4.468-2.418-6.328-7.632-4.84-12.656 9.864-32.020 26.98-61.040 49.32-85.42 3.532-3.726 8.934-4.656 13.394-2.050l38.52 22.14c16.188-13.774 34.8-24.56 54.9-31.64v-44.48c0-5.028 3.54-9.492 8.376-10.422 33.32-7.446 67-7.258 98.64 0 4.84 0.93 8.562 5.394 8.562 10.422v44.48c20.1 7.070 38.72 17.864 54.9 31.64l38.34-22.14c4.282-2.606 10.050-1.676 13.398 2.050 22.34 24.2 39.46 53.4 49.5 85.42 1.488 5.024-0.555 10.238-5.024 12.656l-38.34 22.34c3.906 20.84 3.906 42.44 0 63.28l38.34 22.34c4.508 0.698 6.508 5.898 3.308 10.898zM1024 96c-35.34 0-64 28.66-64 64s28.66 64 64 64 64-28.66 64-64c0-35.4-28.6-64-64-64z" />
<glyph unicode="&#xe93a;" glyph-name="gear" d="M999 296c0 11.32-6.224 22.26-16.406 28.14l-93.22 53.82c4.226 22.84 6.626 47.84 6.626 70.040s-2.484 47.3-6.68 70.040l93.22 53.82c10.184 5.882 16.406 16.822 16.406 28.14 0 28.2-83.96 198.080-127.72 198.080-5.664 0-11.376-1.453-16.492-4.406l-93.44-53.96c-35.494 30.326-76.494 54.086-121.294 69.966v107.76c0 15.046-10.324 28.56-25.060 31.64-33.34 6.966-67.54 10.92-102.94 10.92s-69.7-3.954-102.96-10.922c-14.64-3.086-25.040-16.598-25.040-31.638v-107.76c-44.8-15.88-85.8-39.64-121.2-69.88l-93.54 53.88c-5.1 2.96-10.82 4.42-16.48 4.42-39.44 0-127.72-163.9-127.72-198.080 0-11.32 6.224-22.26 16.406-28.14l93.22-53.82c-4.206-22.86-6.686-46.060-6.686-70.060s2.484-47.3 6.68-70.040l-93.22-53.82c-10.184-5.882-16.406-16.822-16.406-28.14 0-28.2 83.96-198.080 127.72-198.080 5.664 0 11.376 1.453 16.492 4.406l93.44 53.96c35.494-30.286 76.494-54.086 121.294-69.886v-107.76c0-15.046 10.324-28.56 25.060-31.64 33.34-7 67.54-11 101.14-11s69.7 3.954 102.96 10.922c16.44 4.878 26.84 16.678 26.84 31.678v107.76c44.84 15.876 85.86 39.64 121.3 69.94l93.44-53.96c5.114-2.954 10.832-4.406 16.492-4.406 39.368 0.066 127.768 163.866 127.768 198.066zM512 288c-88.22 0-160 71.78-160 160s71.8 160 160 160 160-71.78 160-160-71.8-160-160-160z" />
<glyph unicode="&#xe93b;" glyph-name="gears" horiz-adv-x="1280" d="M629.2 526.8l-58 33.4c3 15.6 4.8 31.4 4.8 47.6 0 16.6-1.8 32.6-4.8 50l58 31.8c8.586 4.96 12.89 15.39 9.766 24.8-14.566 45.4-37.766 83.38-67.566 117.040-4 4.5-9.6 6.82-15.4 6.82-3.722 0-7.472-0.957-10.84-2.898l-59.16-34.182c-24 20.6-51.4 36.68-81.8 47.32v68.2c0 9.886-6.836 18.696-16.516 20.72-21.884 4.576-44.484 7.24-67.684 7.24-23.22 0-45.76-2.684-67.62-7.264-9.68-2.032-16.496-10.82-16.496-20.7v-68.18c-30.484-10.656-57.964-26.736-81.924-47.336l-59.18 34.18c-3.36 1.94-7.12 2.9-10.84 2.9-5.786 0-11.296-2.338-15.304-6.854-29.856-33.646-53.12-71.606-67.62-117.006-3.122-9.4 1.18-19.8 9.766-24.8l58.080-33.54c-3.002-15.66-4.862-31.66-4.862-48.26 0-16.274 1.887-32.080 4.79-47.5l-58.008-33.5c-8.586-5-12.888-15.4-9.766-23 14.5-43.66 37.58-83.38 67.42-117.040 4.004-6.36 9.724-8.56 15.504-8.56 3.722 0 7.476 0.957 10.84 2.898l58.62 33.702c24.080-20.82 51.82-37.060 82.48-47.78v-67.38c0-9.882 6.838-18.558 16.516-20.58 21.804-4.46 44.404-7.26 67.604-7.26 23.22 0 45.76 2.822 67.62 7.4 9.68 2.032 16.494 10.686 16.494 20.56v67.24c30.68 10.73 58.4 26.98 82.48 47.8l58.606-33.8c3.36-1.941 7.118-2.898 10.84-2.898 5.782 0 11.292 2.476 15.304 6.996 29.84 33.66 53.12 73.2 67.62 116.88 3.236 9.422-1.164 19.822-9.764 24.822zM320 511.8c-53.020 0-96 42.98-96 96s42.98 96 96 96 96-42.98 96-96-43-96-96-96zM1257 323.6c-2.032 9.68-10.824 16.496-20.72 16.496h-68.18c-10.648 30.44-26.72 57.96-47.32 81.92l34.18 59.2c1.941 3.36 2.898 7.118 2.898 10.84 0 5.786-2.334 11.296-6.85 15.304-33.66 29.84-73.34 53.12-117.020 67.62-9.406 3.122-19.836-1.18-24.8-9.766l-33.54-58.080c-17.448 3.066-33.448 4.866-48.248 4.866-16.274 0-32.080-1.887-47.5-4.79l-33.5 57.99c-4.96 8.586-15.398 12.886-24.8 9.766-43.66-14.5-83.38-37.58-117.040-67.42-4.52-4.008-6.838-9.714-6.838-15.496 0-3.722 0.959-7.476 2.9-10.84l33.84-58.62c-20.82-24.080-37.060-51.82-47.78-82.48h-67.482c-9.882 0-18.992-6.786-21.020-16.464-4.58-21.846-6.78-44.446-6.78-67.646 0-23.22 2.368-45.8 6.946-67.64 1.854-9.76 11.054-16.56 20.854-16.56h67.38c10.73-30.68 26.98-58.4 47.8-82.48l-33.84-58.62c-1.941-3.36-2.9-7.118-2.9-10.84 0-5.782 2.088-11.484 6.608-15.496 33.66-29.84 73.6-52.92 117.26-67.42 9.406-3.124 19.844 1.18 24.8 9.766l33.48 58c15.412-2.91 31.212-4.71 47.612-4.71 16.536 0 32.6 1.867 48.26 4.864l33.54-58.080c4.96-8.586 15.39-12.89 24.8-9.766 43.68 14.5 83.38 37.8 117.040 67.64 4.516 4.012 6.828 9.502 6.828 15.284 0 3.722-0.957 7.472-2.898 10.84l-34.18 59.2c20.58 23.96 36.68 51.48 47.32 81.92h68.18c9.886 0 18.7 6.836 20.74 16.516 4.57 21.782 7.17 44.382 7.17 67.582s-2.6 45.8-7.2 67.6zM927.4 160c-53.020 0-96 42.98-96 96s42.98 96 96 96 96-42.98 96-96-43-96-96-96z" />
<glyph unicode="&#xe93c;" glyph-name="addthis" horiz-adv-x="896" d="M768 896h-640c-70.7 0-128-57.32-128-128v-640c0-70.68 57.3-128 128-128h640c70.7 0 128 57.32 128 128v640c0 70.68-57.4 128-128 128zM638.2 400h-144v-144c0-26.4-21.6-48-46.2-48-26.4 0-48 21.6-48 48v144h-145.8c-24.6 0-48 21.6-48 48s21.6 48 48 48h142.2v144c0 26.4 21.6 48 48 48s46.2-21.6 46.2-48v-144h144c26.4 0 46.2-21.6 46.2-48 5.4-26.4-14.4-48-42.6-48z" />
<glyph unicode="&#xe93d;" glyph-name="layer-group" d="M999.2 487.4l-116.2 52.6-323.2-146.5c-15.2-6.7-31.2-10.3-47.8-10.3s-32.4 3.6-47.8 10.2l-323.2 146.6-116.24-52.6c-33-15-33-65 0-80l466-211.2c13.5-6.25 29-6.25 42.5 0l466 211.2c32.94 15 32.94 65-0.060 80zM24.76 664l466-211.6c13.5-6 29-6 42.5 0l465.94 211.6c33 15 33 65 0 80l-466 211.6c-13.5 6-29 6-42.5 0l-465.94-211.6c-33.010-15-33.010-65 0-80zM999.2 231.8l-115.76 52.5-323.8-146.76c-15.040-6.74-31.040-10.34-47.64-10.34s-32.5 3.5-47.76 10.25l-323.8 146.76-115.76-52.5c-33-15-33-65 0-80l466-211.2c13.5-6 29-6 42.5 0l466 211.2c33.020 15.090 33.020 65.090 0.020 80.090z" />
<glyph unicode="&#xe93e;" glyph-name="position" horiz-adv-x="896" d="M0 896v-256h256v256h-256zM240 656h-224v224h224v-224zM320 896v-256h256v256h-256zM560 656h-224v224h224v-224zM640 896v-256h256v256h-256zM880 656h-224v224h224v-224zM0 576v-256h256v256h-256zM240 336h-224v224h224v-224zM320 576v-256h256v256h-256zM560 336h-224v224h224v-224zM640 576v-256h256v256h-256zM880 336h-224v224h224v-224zM0 256v-256h256v256h-256zM240 16h-224v224h224v-224zM320 256v-256h256v256h-256zM560 16h-224v224h224v-224zM640 256v-256h256v256h-256z" />
<glyph unicode="&#xe96e;" glyph-name="icons-2" d="M521.2 320.4l-94.2-0.040-16 28.44c-8 21.5-28.5 35.54-51.26 35.54h-143.54c-22.76 0-43.24-14.036-51.24-35.54l-14-28.5-96 0.040c-30.46 0.060-54.96-24.54-54.96-54.74v-274.6c0-30.5 24.5-54.94 54.76-54.94h466.4c30.24 0 54.74 24.44 54.74 54.94l0.1 274.6c0 30.2-24.6 54.8-54.8 54.8zM288 25.8c-57.5 0-104 46.5-104 104s46.5 104 104 104 104-46.5 104-104-46.4-104-104-104zM233.2 521.4c6-6.25 14.202-9.488 22.7-9.488s16.9 3.088 22.5 9.488l191.8 199.6c56.5 58 53 154.24-9.75 207.8-54.76 46.76-136.24 38.26-186.5-13.748l-19.75-20.212-18 20.26c-50.24 52-131.74 60.5-186.5 13.748-62.76-53.5-66-149.74-10-207.8l193.5-199.648zM956 959.312l-297.2-45.5c-29.24-4.5-51-31.5-51-63.5v-213.4c-10.5 2.25-21.24 3.17-31.98 3.42-70.76 0-126.2-43.040-126.2-96.060s57.24-96.060 126.2-96.060c70.5 0 127.52 42.8 128.020 95.56l0.16 217.048 224 34.26-0.083-94.24c-10.5 2.25-21.24 3.17-31.98 3.42-70.76 0-126.2-42.98-126.2-95.98 0-53.26 57.24-94.2 126.2-94.2 70.5 0 127.5 42.86 126.2 95.62l0.007 288.2c0.057 37.16-30.343 66.912-66.143 61.412zM992 224h-111.44l76.88 179.4c5.876 13.718 1.437 29.68-10.624 38.46-12.188 8.844-28.68 8.062-39.88-1.781l-256-224c-10.062-8.782-13.562-22.88-8.876-35.34 4.74-12.539 16.54-20.739 29.94-20.739h111.44l-76.88-179.4c-5.876-13.718-1.437-29.68 10.624-38.46 5.616-2.34 12.216-6.14 18.816-6.14 7.562 0 15.062 2.656 21.060 7.906l256 224c10.062 8.782 13.562 22.88 8.876 35.34-4.736 12.554-16.536 20.754-29.936 20.754z" />
<glyph unicode="&#xe96f;" glyph-name="pagination" d="M397.248 448c0-34.096-27.664-61.792-61.792-61.792s-61.792 27.696-61.792 61.792 27.664 61.792 61.792 61.792c34.128 0 61.792-27.696 61.792-61.792zM573.792 448c0-34.096-27.696-61.792-61.792-61.792s-61.792 27.696-61.792 61.792 27.696 61.792 61.792 61.792 61.792-27.696 61.792-61.792zM626.768 448c0 34.096 27.68 61.792 61.776 61.792s61.792-27.696 61.792-61.792-27.696-61.792-61.792-61.792-61.776 27.696-61.776 61.792zM872.384 613.184l141.232-140.256c6.96-7.824 10.384-16.88 10.384-24.928s-3.456-18.080-10.336-24.976l-141.248-140.256c-10.096-10.096-25.28-13.136-38.48-7.664s-21.776 16.4-21.776 31.648v281.504c0 14.288 8.576 27.168 21.792 32.64 13.184 5.456 28.384 2.416 38.432-7.712zM151.616 281.472l-141.248 140.256c-6.928 7.824-10.368 16.864-10.368 26.912s3.44 18.080 10.336 24.976l141.248 140.24c10.096 10.112 25.28 13.136 38.48 7.664s21.792-18.4 21.792-32.64v-281.488c0-14.272-8.592-27.152-21.792-32.624-13.2-5.488-28.4-3.456-38.448 6.704z" />
<glyph unicode="&#xe970;" glyph-name="pagination-2" d="M397.248 448c0-34.096-27.664-61.792-61.792-61.792s-61.792 27.696-61.792 61.792 27.664 61.792 61.792 61.792c34.128 0 61.792-27.696 61.792-61.792zM573.792 448c0-34.096-27.696-61.792-61.792-61.792s-61.792 27.696-61.792 61.792 27.696 61.792 61.792 61.792 61.792-27.696 61.792-61.792zM626.768 448c0 34.096 27.68 61.792 61.776 61.792s61.792-27.696 61.792-61.792-27.696-61.792-61.792-61.792-61.776 27.696-61.776 61.792zM175.984 272c-7.504 0-15.008 2.864-20.736 8.592l-146.656 146.672c-11.456 11.456-11.456 30.016 0 41.472l146.656 146.672c11.456 11.456 30.016 11.456 41.488 0 11.456-11.456 11.456-30.016 0-41.472l-125.92-125.936 125.936-125.952c11.456-11.456 11.456-30.016 0-41.472-5.744-5.728-13.232-8.576-20.768-8.576zM848 272c-7.504 0-15.008 2.864-20.72 8.592-11.472 11.456-11.472 30.016 0 41.472l125.936 125.92-125.936 125.952c-11.472 11.456-11.472 30.016 0 41.472 11.44 11.456 30 11.456 41.472 0l146.656-146.656c11.472-11.456 11.472-30.016 0-41.472l-146.656-146.672c-5.728-5.76-13.248-8.608-20.752-8.608z" />
<glyph unicode="&#xe986;" glyph-name="file-fields, form" d="M640 960v-256h256l-256 256zM576 704v256h-352c-53.024 0-96-42.976-96-96v-832c0-52.992 42.976-96 96-96h576c53.024 0 96 42.976 96 96v608h-254.208c-37.2 0-65.792 28.608-65.792 64zM717.776 470.96c16.88 0 30.512-13.664 30.512-30.496 0-16.88-13.648-30.496-30.512-30.496h-274.4c-16.848 0-30.464 13.632-30.464 30.496 0 16.816 13.632 30.496 30.464 30.496h274.4zM717.776 318.48c16.88 0 30.512-13.616 30.512-30.48s-13.648-30.464-30.512-30.464h-274.4c-16.848 0-30.464 13.6-30.464 30.464s13.632 30.48 30.464 30.48h274.4zM717.776 166.048c16.88 0 30.512-13.648 30.512-30.496s-13.648-30.48-30.512-30.48h-274.4c-16.848 0-30.464 13.648-30.464 30.48 0 16.864 13.632 30.496 30.464 30.496h274.4zM275.696 440.464c0 25.264 20.448 45.728 45.728 45.728 25.248 0 45.728-20.464 45.728-45.728s-20.48-45.728-45.728-45.728c-25.264 0-45.728 20.464-45.728 45.728zM275.696 135.552c0 25.248 20.448 45.744 45.728 45.744 25.248 0 45.728-20.496 45.728-45.744 0-25.232-20.48-45.712-45.728-45.712-25.264-0.016-45.728 20.48-45.728 45.712zM367.168 288c0-25.232-20.48-45.712-45.728-45.712-25.28 0-45.728 20.48-45.728 45.712 0 25.248 20.448 45.712 45.728 45.712 25.248 0 45.728-20.464 45.728-45.712z" />
<glyph unicode="&#xe987;" glyph-name="file-form" d="M641.792 640h254.208v-608c0-53.024-42.976-96-96-96h-576c-53.024 0-96 43.008-96 96v832c0 53.024 42.976 96 96 96h352v-256c0-35.392 28.592-64 65.792-64zM640 960v-256h256l-256 256zM434.352 108c-9.536 0-17.232-19.776-17.232-44.224 0-24.416 7.696-44.208 17.232-44.208h155.264c9.568 0 17.248 19.776 17.248 44.208s-7.68 44.224-17.248 44.224h-155.264zM443.376 546.544c-16.848 0-30.464-13.664-30.464-30.496 0-16.88 13.632-30.496 30.464-30.496h274.4c16.88 0 30.512 13.632 30.512 30.496 0 16.816-13.648 30.496-30.512 30.496h-274.4zM443.376 394.064c-16.848 0-30.464-13.616-30.464-30.48s13.632-30.464 30.464-30.464h274.4c16.88 0 30.512 13.6 30.512 30.464s-13.648 30.48-30.512 30.48h-274.4zM443.376 241.632c-16.848 0-30.464-13.648-30.464-30.496s13.632-30.48 30.464-30.48h274.4c16.88 0 30.512 13.648 30.512 30.48 0 16.864-13.648 30.496-30.512 30.496h-274.4zM321.44 165.408c25.248 0 45.728 20.48 45.728 45.712 0 25.248-20.48 45.744-45.728 45.744-25.28 0-45.728-20.496-45.728-45.744-0.016-25.232 20.448-45.712 45.728-45.712zM321.44 409.296c-25.28 0-45.728-20.464-45.728-45.712 0-25.232 20.448-45.712 45.728-45.712 25.248 0 45.728 20.48 45.728 45.712 0 25.248-20.48 45.712-45.728 45.712zM321.44 470.32c25.248 0 45.728 20.464 45.728 45.728s-20.48 45.728-45.728 45.728c-25.28 0-45.728-20.464-45.728-45.728-0.016-25.264 20.448-45.728 45.728-45.728z" />
<glyph unicode="&#xe988;" glyph-name="file-form-checked" d="M641.792 640h254.208v-608c0-53.024-42.976-96-96-96h-576c-53.024 0-96 43.008-96 96v832c0 53.024 42.976 96 96 96h352v-256c0-35.392 28.592-64 65.792-64zM640 960v-256h256l-256 256zM434.352 108c-9.536 0-17.232-19.776-17.232-44.224 0-24.416 7.696-44.208 17.232-44.208h155.264c9.568 0 17.248 19.776 17.248 44.208s-7.68 44.224-17.248 44.224h-155.264zM443.376 546.544c-16.848 0-30.464-13.664-30.464-30.496 0-16.88 13.632-30.496 30.464-30.496h274.4c16.88 0 30.512 13.632 30.512 30.496 0 16.816-13.648 30.496-30.512 30.496h-274.4zM443.376 394.064c-16.848 0-30.464-13.616-30.464-30.48s13.632-30.464 30.464-30.464h274.4c16.88 0 30.512 13.6 30.512 30.464s-13.648 30.48-30.512 30.48h-274.4zM443.376 241.632c-16.848 0-30.464-13.648-30.464-30.496s13.632-30.48 30.464-30.48h274.4c16.88 0 30.512 13.648 30.512 30.48 0 16.864-13.648 30.496-30.512 30.496h-274.4zM321.44 165.408c25.248 0 45.728 20.48 45.728 45.712 0 25.248-20.48 45.744-45.728 45.744-25.28 0-45.728-20.496-45.728-45.744-0.016-25.232 20.448-45.712 45.728-45.712zM321.44 409.296c-25.28 0-45.728-20.464-45.728-45.712 0-25.232 20.448-45.712 45.728-45.712 25.248 0 45.728 20.48 45.728 45.712 0 25.248-20.48 45.712-45.728 45.712zM321.44 470.32c25.248 0 45.728 20.464 45.728 45.728s-20.48 45.728-45.728 45.728c-25.28 0-45.728-20.464-45.728-45.728-0.016-25.264 20.448-45.728 45.728-45.728zM842.688 173.632c-9.504 9.024-24.384 8.48-33.216-1.264l-85.328-93.904-37.616 38.464c-9.184 9.392-24.080 9.392-33.248 0-9.184-9.408-9.184-24.608 0-34.016l54.88-56.096c4.416-4.528 10.368-7.040 16.656-7.040h0.432c6.384 0.144 12.464 2.912 16.8 7.68l101.92 112.208c8.832 9.728 8.224 24.96-1.28 33.968z" />
<glyph unicode="&#xe989;" glyph-name="file-lines" horiz-adv-x="768" d="M512 960v-256h256l-256 256zM448 704v256h-352c-53.020 0-96-42.98-96-96v-832c0-53 42.98-96 96-96h576c53.020 0 96 42.98 96 96v608h-254.2c-37.2 0-65.8 28.6-65.8 64zM544 128h-320c-17.6 0-32 14.4-32 32s14.4 32 32 32h320c17.672 0 32-14.324 32-32 0-17.6-14.4-32-32-32zM544 256h-320c-17.6 0-32 14.4-32 32s14.4 32 32 32h320c17.672 0 32-14.324 32-32 0-17.6-14.4-32-32-32zM576 416c0-17.6-14.4-32-32-32h-320c-17.6 0-32 14.4-32 32s14.4 32 32 32h320c17.6 0 32-14.4 32-32z" />
<glyph unicode="&#xe98a;" glyph-name="eye" horiz-adv-x="1152" d="M1145 483.8c-108.4 245.2-323.2 412.2-569 412.2s-460.62-167.2-569.062-412.2c-3.812-10.6-6.938-25.8-6.938-35.8 0-9.954 3.124-25.2 6.938-34.060 108.502-246.94 323.262-413.94 569.062-413.94s460.6 167.16 569 412.2c3.8 10.6 7 27.6 7 35.8 0 10-3.2 25.2-7 35.8zM864 448c0-158.9-128.94-288-287.8-288-159 0-288.2 129-288.2 288s129 288 288 288 288-129 288-288zM576 640c-4.6 0-11.2-0.8-17-1.6 10.6-18.4 17-39.6 17-62.4 0-70.7-57.3-128-128-128-22.8 0-45.8 6.6-62.6 17-0.6-6-1.4-12.2-1.4-17 0-104.2 86-192 192-192s192 85.98 192 191.98-87.8 192.020-192 192.020z" />
<glyph unicode="&#xe98b;" glyph-name="eye-slash" horiz-adv-x="1280" d="M650.2 257l-198.6 155.8c16.606-89.12 94.52-156.74 188.44-156.74 3.56-0.060 6.76 0.74 10.16 0.94zM640 160c-159 0-288 129.040-288 286.2 0 13.578 2.18 26.56 2.2 39.64l-191.64 153.36c-35.54-47.5-66.54-100.080-91.62-157.18-3.82-8.82-8.74-24.020-8.74-34.020 0-9.954 3.126-25.2 6.938-34.060 108.5-246.8 323.2-412.2 569-412.2 90.92 0 177.54 22.98 256.2 64.28l-149 116.8c-33.138-15.020-69.138-22.82-105.338-22.82zM1261.6 21.8l-207 162.22c62.74 63.92 115.54 141.5 154.42 228.2 3.812 8.86 6.938 24.14 6.938 34.060 0 9.952-3.124 25.2-6.938 34.060-108.5 246.8-323.2 412.2-569 412.2-125.38 0-242.4-43.88-341.6-119.24l-220.8 176.468c-8.8 6.874-19.24 10.232-29.56 10.232-14.24 0-28.382-6.316-37.818-18.378-16.374-20.88-12.74-51.060 8.136-67.4l1182.2-926.2c21-16.406 51.14-12.666 67.38 8.146 18.242 19.032 14.442 49.232-6.358 65.632zM926.2 448c0-49.7-13.41-95.96-35.9-136.54l-77.1 60.46c10.48 23.36 16.99 48.84 16.99 76.16 0 104.2-86 192-190.2 192-4.602-0.059-11.15-0.887-16.922-1.532 10.532-18.548 15.132-39.748 15.132-62.548 0-20.34-5.122-39.34-13.642-56.32l-177.358 140.52c50.92 46.76 118.24 75.86 192.84 75.86 158.96-0.060 286.16-129.26 286.16-288.060z" />
<glyph unicode="&#xe98c;" glyph-name="info" horiz-adv-x="384" d="M320 64h-64v448c0 35.38-28.66 64-64 64h-128c-35.34 0-64-28.62-64-64s28.66-62.2 64-62.2h64v-384h-64c-35.34 0-64-28.62-64-64s28.66-64 64-64h256c35.34 0 64 28.62 64 64s-28.6 62.2-64 62.2zM192 704c53.020 0 96 42.98 96 96s-43 95.98-96 95.98-96-42.98-96-96 42.98-95.98 96-95.98z" />
<glyph unicode="&#xe98d;" glyph-name="chevron-down" horiz-adv-x="896" d="M448 128c-16.376 0-32.76 6.25-45.24 18.75l-384 384c-25 25-25 65.5 0 90.5s65.5 25 90.5 0l338.74-338.85 338.8 338.8c25 25 65.5 25 90.5 0s25-65.5 0-90.5l-384-384c-12.5-12.5-28.9-18.7-45.3-18.7z" />
<glyph unicode="&#xe98e;" glyph-name="chevron-up" horiz-adv-x="896" d="M832 256c-16.376 0-32.76 6.25-45.24 18.75l-338.76 338.65-338.8-338.8c-25-25-65.5-25-90.5 0s-25 65.5 0 90.5l384 384c25 25 65.5 25 90.5 0l384-384c25-25 25-65.5 0-90.5-12.4-12.4-28.8-18.6-45.2-18.6z" />
<glyph unicode="&#xe98f;" glyph-name="magnifying-glass, search" d="M1000.6 72.6l-239.4 239.4c54.44 80.82 81.3 181.8 66.92 289.4-24.52 183.020-174.52 331.96-357.72 355.154-272.38 34.466-501.42-194.574-466.952-466.954 23.2-183.28 172.16-333.4 355.2-357.8 107.6-14.378 208.6 12.472 289.4 66.92l239.4-239.4c31.24-31.24 81.9-31.24 113.14 0 31.212 31.28 31.212 82.080 0.012 113.28zM158.2 544c0 141.16 114.84 256 256 256s256-114.84 256-256c0-141.16-114.84-256-256-256s-256 114.8-256 256z" />
<glyph unicode="&#xe990;" glyph-name="arrow-rotate-left, reset" d="M960 448c0-246.8-201-447.8-447.8-447.8-97.72 0-190.38 31.16-268.4 89.72-28.28 21.18-34 61.32-12.782 89.62 21.22 28.18 61.38 33.94 89.6 12.75 55.68-41.82 122-63.88 191.78-63.88 176.202-0.010 319.602 143.39 319.602 319.59s-143.34 319.6-319.6 319.6c-100.6-0.040-195.2-48.2-255.2-127.6h126.8c35.34 0 64-28.62 64-64s-28.6-64-64-64h-288c-35.34 0-64 28.62-64 64v288c0 35.38 28.66 64 64 64s64-28.62 64-64v-140.46c84.2 107.3 212.2 172.24 352.2 172.24 246.8 0 447.8-200.98 447.8-447.78z" />
<glyph unicode="&#xe991;" glyph-name="plus" horiz-adv-x="896" d="M864 448c0-35.38-28.66-64.020-64-64.020h-288v-288c0-35.38-28.66-63.98-64-63.98s-64 28.6-64 63.98v288h-288c-35.34 0-64 28.64-64 64.020s28.66 63.98 64 63.98h288v288c0 35.38 28.66 64.020 64 64.020s64-28.64 64-64.020v-288h288c35.4 0.020 64-28.58 64-63.98z" />
<glyph unicode="&#xe992;" glyph-name="minus" horiz-adv-x="896" d="M800 384h-704c-35.38 0-64 28.64-64 64.020s28.62 63.98 64 63.98h704c35.38 0 64-28.6 64-63.98s-28.6-64.020-64-64.020z" />
<glyph unicode="&#xe993;" glyph-name="user-card" horiz-adv-x="1152" d="M1024 896h-896c-70.7 0-128-57.3-128-128v-640c0-70.7 57.3-128 128-128h896c70.7 0 128 57.3 128 128v640c0 70.7-57.4 128-128 128zM352 704c70.7 0 128-57.3 128-128s-57.3-128-128-128-128 57.3-128 128 57.4 128 128 128zM544 192h-384c-17.68 0-32 14.4-32 32 0 88.4 71.64 160 160 160h128c88.36 0 160-71.64 160-160 0-17.6-14.4-32-32-32zM992 320h-256c-17.6 0-32 14.4-32 32s14.4 32 32 32h256c17.6 0 32-14.4 32-32s-14.4-32-32-32zM992 448h-256c-17.6 0-32 14.4-32 32s14.4 32 32 32h256c17.6 0 32-14.4 32-32s-14.4-32-32-32zM992 576h-256c-17.6 0-32 14.4-32 32s14.4 32 32 32h256c17.6 0 32-14.4 32-32s-14.4-32-32-32z" />
<glyph unicode="&#xe994;" glyph-name="circle-user" d="M512 960c-282.8 0-512-229.2-512-512s229.2-512 512-512 512 229.2 512 512-229.2 512-512 512zM512 704c79.54 0 144-64.48 144-144s-64.4-144-144-144c-79.52 0-144 64.48-144 144s64.4 144 144 144zM512 64c-105.86 0-201.8 43.060-271.4 112.58 32.4 83.62 112.4 143.42 207.4 143.42h128c95.080 0 175.080-59.76 207.4-143.42-69.6-69.58-165.6-112.58-271.4-112.58z" />
<glyph unicode="&#xe995;" glyph-name="user" horiz-adv-x="896" d="M448 448c141.4 0 256 114.62 256 256s-114.6 256-256 256c-141.4 0-256-114.62-256-256s114.6-256 256-256zM549.4 352h-202.8c-191.38 0-346.6-155.2-346.6-346.6 0-38.28 31.040-69.34 69.32-69.34h757.4c38.28-0.060 69.28 30.94 69.28 69.34 0 191.4-155.2 346.6-346.6 346.6z" />
<glyph unicode="&#xe996;" glyph-name="user-group" horiz-adv-x="1280" d="M448 448c141.4 0 256 114.62 256 256s-114.6 256-256 256c-141.4 0-256-114.62-256-256s114.6-256 256-256zM549.4 352h-202.8c-191.46 0-346.6-155.2-346.6-346.6 0-38.4 31.040-69.4 69.32-69.4h757.28c38.4 0 69.4 31 69.4 69.4 0 191.4-155.2 346.6-346.6 346.6zM958.2 320h-147.7c91.9-75.4 149.5-188.2 149.5-314.6 0-25.6-7.6-49.2-20-69.4h276c35.4 0 64 28.8 64 65.8 0 175-143.2 318.2-321.8 318.2zM864 448c123.8 0 224 100.2 224 224s-100.2 224-224 224c-50.22 0-96.080-17.11-133.44-45.020 23.040-44.24 37.44-93.78 37.44-146.98 0-71.040-23.86-136.28-63.18-189.42 40.58-40.98 96.78-66.58 159.18-66.58z" />
<glyph unicode="&#xe997;" glyph-name="backicY" d="M851.14 755.628l-285.82-238.149v-139.072l285.82-238.149c34.338-28.397 87.5-4.4 87.5 42.596v531.748c0 45.62-53.166 69.58-87.5 41.026zM424.5 755.628l-320.082-266.631c-25.42-21.454-25.42-60.62 0-82.060l319.98-265.146c34.38-28.539 87.507-4.58 87.507 41.026v533.14c-1.42 44.26-53.080 68.223-87.419 39.682z" />
<glyph unicode="&#xe998;" glyph-name="backic" horiz-adv-x="896" d="M97.296 375.725l616.008-364.177c50.048-29.576 126.704-0.872 126.704 72.275v728.184c0 65.624-71.224 105.176-126.704 72.275l-616.008-364.005c-54.952-32.376-55.128-112.176 0-144.552z" />
<glyph unicode="&#xe999;" glyph-name="nextic" horiz-adv-x="896" d="M798.704 520.275l-616.008 364.177c-50.048 29.576-126.704 0.872-126.704-72.275v-728.184c0-65.624 71.224-105.176 126.704-72.275l616.008 364.005c54.952 32.376 55.128 112.176 0 144.552z" />
<glyph unicode="&#xe99a;" glyph-name="nexticY" d="M172.844 140.328l285.84 238.168v139l-285.84 238.156c-34.384 28.548-87.516 4.581-87.516-41.032v-533.176c0-45.62 53.136-69.62 87.516-41.116zM599.504 140.328l320.008 265.171c25.42 21.452 25.42 60.62 0 82.069l-320.008 265.171c-34.384 28.536-87.516 4.581-87.516-41.032v-533.176c0.020-42.704 53.186-66.704 87.516-38.2z" />
<glyph unicode="&#xe99b;" glyph-name="users" horiz-adv-x="1280" d="M639.8 320c114.82 0 206.2 93.12 206.2 208s-93.080 208-206.2 208c-114.82 0-206.2-93.12-206.2-208-1.8-114.8 91.4-208 206.2-208zM739.8 256h-199.6c-157 0-284.2-119.4-284.2-266.6 0-29.6 25.4-53.4 56.8-53.4h654.4c31.4 0 56.8 23.8 56.8 53.4 0 147.2-127.2 266.6-284.2 266.6zM1024 640c88.36 0 160 71.64 160 160s-71.6 160-160 160c-88.36 0-160-71.64-160-160s71.6-160 160-160zM367.8 528c0 10.898 1.965 21.26 3.218 31.82-21.818 11.98-45.818 16.18-71.218 16.18h-123.64c-97.28 0-176.16-83.6-176.16-186.6 0-20.6 15.774-37.4 35.24-37.4h399c-40.84 47.6-66.44 108.6-66.44 176zM256 640c88.36 0 160 71.64 160 160s-71.6 160-160 160c-88.36 0-160-71.64-160-160s71.64-160 160-160zM1103.8 576h-123.68c-25.6 0-49.76-6.074-71.72-16.48 1.2-10.52 3.2-20.72 3.2-31.52 0-67.42-25.56-128.42-66.32-176h399.4c19.52 0 35.32 16.8 35.32 37.4 0 103-78.8 186.6-176.2 186.6z" />
</font>
</defs>
</svg>
